Labtop.ufo
<glyph name="exclam" format="1">
  <advance width="142"/>
  <unicode hex="0021"/>
  <outline>
    <contour>
      <point x="89" y="121" type="line"/>
      <point x="89" y="804" type="line"/>
      <point x="55" y="804" type="line"/>
      <point x="55" y="121" type="line"/>
    </contour>
    <contour>
      <point x="87" y="-1" type="line"/>
      <point x="87" y="36" type="line"/>
      <point x="56" y="36" type="line"/>
      <point x="56" y="-1" type="line"/>
    </contour>
  </outline>
</glyph>
<glyph name="percent" format="1">
  <advance width="577"/>
  <unicode hex="0025"/>
  <outline>
    <contour>
      <point x="235" y="525" type="qcurve" smooth="yes"/>
      <point x="235" y="685" type="line" smooth="yes"/>
      <point x="235" y="806"/>
      <point x="130" y="806" type="qcurve" smooth="yes"/>
      <point x="27" y="806"/>
      <point x="27" y="685" type="qcurve" smooth="yes"/>
      <point x="27" y="525" type="line" smooth="yes"/>
      <point x="27" y="402"/>
      <point x="130" y="402" type="qcurve" smooth="yes"/>
      <point x="235" y="402"/>
    </contour>
    <contour>
      <point x="550" y="116" type="qcurve" smooth="yes"/>
      <point x="550" y="276" type="line" smooth="yes"/>
      <point x="550" y="399"/>
      <point x="446" y="399" type="qcurve" smooth="yes"/>
      <point x="344" y="399"/>
      <point x="344" y="276" type="qcurve" smooth="yes"/>
      <point x="344" y="116" type="line" smooth="yes"/>
      <point x="344" y="50"/>
      <point x="367" y="22" type="qcurve"/>
      <point x="380" y="9" type="line" smooth="yes"/>
      <point x="384" y="6"/>
      <point x="389" y="1" type="qcurve"/>
      <point x="400" y="-5"/>
      <point x="425" y="-5" type="qcurve" smooth="yes"/>
      <point x="495" y="-5"/>
      <point x="522" y="22" type="qcurve"/>
      <point x="550" y="47"/>
    </contour>
    <contour>
      <point x="516" y="114" type="line" smooth="yes"/>
      <point x="516" y="20"/>
      <point x="446" y="20" type="qcurve" smooth="yes"/>
      <point x="405" y="20"/>
      <point x="387" y="47" type="qcurve"/>
      <point x="382" y="60"/>
      <point x="379" y="74" type="qcurve" smooth="yes"/>
      <point x="376" y="91"/>
      <point x="376" y="114" type="qcurve" smooth="yes"/>
      <point x="376" y="279" type="line" smooth="yes"/>
      <point x="376" y="371"/>
      <point x="516" y="371"/>
      <point x="516" y="279" type="qcurve" smooth="yes"/>
    </contour>
    <contour>
      <point x="200" y="522" type="line" smooth="yes"/>
      <point x="200" y="429"/>
      <point x="130" y="429" type="qcurve" smooth="yes"/>
      <point x="86" y="429"/>
      <point x="72" y="456" type="qcurve"/>
      <point x="61" y="480"/>
      <point x="61" y="522" type="qcurve" smooth="yes"/>
      <point x="61" y="687" type="line" smooth="yes"/>
      <point x="61" y="780"/>
      <point x="130" y="780" type="qcurve" smooth="yes"/>
      <point x="200" y="780"/>
      <point x="200" y="687" type="qcurve" smooth="yes"/>
    </contour>
    <contour>
      <point x="464" y="811" type="line"/>
      <point x="432" y="811" type="line"/>
      <point x="92" y="-8" type="line"/>
      <point x="124" y="-8" type="line"/>
    </contour>
  </outline>
</glyph>
<glyph name="quotesingle" format="1">
  <advance width="150"/>
  <unicode hex="0027"/>
  <outline>
    <contour>
      <point x="94" y="591" type="line"/>
      <point x="94" y="784" type="line"/>
      <point x="56" y="784" type="line"/>
      <point x="56" y="591" type="line"/>
    </contour>
  </outline>
</glyph>
<glyph name="parenright" format="1">
  <advance width="150"/>
  <unicode hex="0029"/>
  <outline>
    <contour>
      <point x="142" y="-110" type="qcurve" smooth="yes"/>
      <point x="142" y="745" type="line" smooth="yes"/>
      <point x="142" y="805"/>
      <point x="121" y="832" type="qcurve"/>
      <point x="99" y="863"/>
      <point x="39" y="866" type="qcurve"/>
      <point x="39" y="840" type="line"/>
      <point x="83" y="835"/>
      <point x="97" y="812" type="qcurve" smooth="yes"/>
      <point x="109" y="794"/>
      <point x="109" y="746" type="qcurve" smooth="yes"/>
      <point x="109" y="-113" type="line" smooth="yes"/>
      <point x="109" y="-158"/>
      <point x="97" y="-179" type="qcurve"/>
      <point x="80" y="-205"/>
      <point x="39" y="-206" type="qcurve"/>
      <point x="39" y="-231" type="line"/>
      <point x="99" y="-229"/>
      <point x="121" y="-198" type="qcurve" smooth="yes"/>
      <point x="142" y="-169"/>
    </contour>
  </outline>
</glyph>
<glyph name="asterisk" format="1">
  <advance width="356"/>
  <unicode hex="002A"/>
  <outline>
    <contour>
      <point x="317" y="691" type="line"/>
      <point x="299" y="725" type="line"/>
      <point x="196" y="666" type="line"/>
      <point x="196" y="784" type="line"/>
      <point x="159" y="784" type="line"/>
      <point x="159" y="666" type="line"/>
      <point x="56" y="725" type="line"/>
      <point x="37" y="691" type="line"/>
      <point x="139" y="632" type="line"/>
      <point x="37" y="574" type="line"/>
      <point x="56" y="540" type="line"/>
      <point x="159" y="600" type="line"/>
      <point x="159" y="481" type="line"/>
      <point x="196" y="481" type="line"/>
      <point x="196" y="600" type="line"/>
      <point x="299" y="540" type="line"/>
      <point x="317" y="574" type="line"/>
      <point x="216" y="632" type="line"/>
    </contour>
  </outline>
</glyph>
<glyph name="comma" format="1">
  <advance width="142"/>
  <unicode hex="002C"/>
  <outline>
    <contour>
      <point x="87" y="41" type="line"/>
      <point x="29" y="41" type="line"/>
      <point x="29" y="4" type="line"/>
      <point x="47" y="4" type="line"/>
      <point x="32" y="-73" type="line"/>
      <point x="65" y="-73" type="line"/>
      <point x="87" y="39" type="line"/>
    </contour>
  </outline>
</glyph>
<glyph name="zero" format="1">
  <advance width="285"/>
  <unicode hex="0030"/>
  <outline>
    <contour>
      <point x="246" y="114" type="qcurve" smooth="yes"/>
      <point x="246" y="690" type="line" smooth="yes"/>
      <point x="246" y="811"/>
      <point x="142" y="811" type="qcurve" smooth="yes"/>
      <point x="39" y="811"/>
      <point x="39" y="690" type="qcurve" smooth="yes"/>
      <point x="39" y="114" type="line" smooth="yes"/>
      <point x="39" y="-8"/>
      <point x="142" y="-8" type="qcurve" smooth="yes"/>
      <point x="246" y="-8"/>
    </contour>
    <contour>
      <point x="212" y="112" type="line" smooth="yes"/>
      <point x="212" y="17"/>
      <point x="142" y="17" type="qcurve" smooth="yes"/>
      <point x="82" y="17"/>
      <point x="74" y="86" type="qcurve"/>
      <point x="212" y="604" type="line"/>
    </contour>
    <contour>
      <point x="211" y="722" type="qcurve"/>
      <point x="72" y="205" type="line"/>
      <point x="72" y="692" type="line" smooth="yes"/>
      <point x="72" y="785"/>
      <point x="142" y="785" type="qcurve" smooth="yes"/>
      <point x="202" y="785"/>
    </contour>
  </outline>
</glyph>
<glyph name="five" format="1">
  <advance width="285"/>
  <unicode hex="0035"/>
  <outline>
    <contour>
      <point x="246" y="114" type="qcurve" smooth="yes"/>
      <point x="246" y="352" type="line" smooth="yes"/>
      <point x="246" y="420"/>
      <point x="227" y="445" type="qcurve"/>
      <point x="205" y="476"/>
      <point x="140" y="476" type="qcurve" smooth="yes"/>
      <point x="72" y="476" type="line"/>
      <point x="72" y="776" type="line"/>
      <point x="246" y="776" type="line"/>
      <point x="246" y="804" type="line"/>
      <point x="39" y="804" type="line"/>
      <point x="39" y="450" type="line"/>
      <point x="132" y="450" type="line" smooth="yes"/>
      <point x="182" y="450"/>
      <point x="199" y="430" type="qcurve"/>
      <point x="212" y="413"/>
      <point x="212" y="361" type="qcurve" smooth="yes"/>
      <point x="212" y="112" type="line" smooth="yes"/>
      <point x="212" y="17"/>
      <point x="72" y="17"/>
      <point x="72" y="112" type="qcurve" smooth="yes"/>
      <point x="72" y="176" type="line"/>
      <point x="39" y="176" type="line"/>
      <point x="39" y="114" type="line" smooth="yes"/>
      <point x="39" y="-8"/>
      <point x="142" y="-8" type="qcurve" smooth="yes"/>
      <point x="246" y="-8"/>
    </contour>
  </outline>
</glyph>
<glyph name="six" format="1">
  <advance width="285"/>
  <unicode hex="0036"/>
  <outline>
    <contour>
      <point x="246" y="114" type="qcurve" smooth="yes"/>
      <point x="246" y="355" type="line" smooth="yes"/>
      <point x="246" y="476"/>
      <point x="146" y="476" type="qcurve" smooth="yes"/>
      <point x="105" y="476"/>
      <point x="72" y="446" type="qcurve"/>
      <point x="72" y="692" type="line" smooth="yes"/>
      <point x="72" y="785"/>
      <point x="212" y="785"/>
      <point x="212" y="692" type="qcurve" smooth="yes"/>
      <point x="212" y="627" type="line"/>
      <point x="246" y="627" type="line"/>
      <point x="246" y="690" type="line" smooth="yes"/>
      <point x="246" y="811"/>
      <point x="142" y="811" type="qcurve" smooth="yes"/>
      <point x="39" y="811"/>
      <point x="39" y="690" type="qcurve" smooth="yes"/>
      <point x="39" y="114" type="line" smooth="yes"/>
      <point x="39" y="-8"/>
      <point x="142" y="-8" type="qcurve" smooth="yes"/>
      <point x="246" y="-8"/>
    </contour>
    <contour>
      <point x="212" y="112" type="line" smooth="yes"/>
      <point x="212" y="17"/>
      <point x="72" y="17"/>
      <point x="72" y="112" type="qcurve" smooth="yes"/>
      <point x="72" y="356" type="line" smooth="yes"/>
      <point x="72" y="450"/>
      <point x="146" y="450" type="qcurve" smooth="yes"/>
      <point x="212" y="450"/>
      <point x="212" y="356" type="qcurve" smooth="yes"/>
    </contour>
  </outline>
</glyph>
<glyph name="eight" format="1">
  <advance width="285"/>
  <unicode hex="0038"/>
  <outline>
    <contour>
      <point x="246" y="114" type="qcurve" smooth="yes"/>
      <point x="246" y="359" type="line" smooth="yes"/>
      <point x="246" y="445"/>
      <point x="200" y="467" type="qcurve"/>
      <point x="246" y="489"/>
      <point x="246" y="576" type="qcurve" smooth="yes"/>
      <point x="246" y="690" type="line" smooth="yes"/>
      <point x="246" y="811"/>
      <point x="142" y="811" type="qcurve" smooth="yes"/>
      <point x="39" y="811"/>
      <point x="39" y="690" type="qcurve" smooth="yes"/>
      <point x="39" y="576" type="line" smooth="yes"/>
      <point x="39" y="488"/>
      <point x="85" y="467" type="qcurve"/>
      <point x="39" y="445"/>
      <point x="39" y="359" type="qcurve" smooth="yes"/>
      <point x="39" y="114" type="line" smooth="yes"/>
      <point x="39" y="-8"/>
      <point x="142" y="-8" type="qcurve" smooth="yes"/>
      <point x="246" y="-8"/>
    </contour>
    <contour>
      <point x="212" y="112" type="line" smooth="yes"/>
      <point x="212" y="17"/>
      <point x="72" y="17"/>
      <point x="72" y="112" type="qcurve" smooth="yes"/>
      <point x="72" y="360" type="line" smooth="yes"/>
      <point x="72" y="454"/>
      <point x="212" y="454"/>
      <point x="212" y="360" type="qcurve" smooth="yes"/>
    </contour>
    <contour>
      <point x="212" y="574" type="line" smooth="yes"/>
      <point x="212" y="480"/>
      <point x="72" y="480"/>
      <point x="72" y="574" type="qcurve" smooth="yes"/>
      <point x="72" y="692" type="line" smooth="yes"/>
      <point x="72" y="785"/>
      <point x="212" y="785"/>
      <point x="212" y="692" type="qcurve" smooth="yes"/>
    </contour>
  </outline>
</glyph>
<glyph name="less" format="1">
  <advance width="441"/>
  <unicode hex="003C"/>
  <outline>
    <contour>
      <point x="395" y="141" type="line"/>
      <point x="395" y="179" type="line"/>
      <point x="116" y="334" type="line"/>
      <point x="395" y="487" type="line"/>
      <point x="395" y="526" type="line"/>
      <point x="56" y="345" type="line"/>
      <point x="56" y="322" type="line"/>
    </contour>
  </outline>
</glyph>
<glyph name="question" format="1">
  <advance width="251"/>
  <unicode hex="003F"/>
  <outline>
    <contour>
      <point x="212" y="571" type="qcurve" smooth="yes"/>
      <point x="212" y="690" type="line" smooth="yes"/>
      <point x="212" y="811"/>
      <point x="108" y="811" type="qcurve" smooth="yes"/>
      <point x="3" y="811"/>
      <point x="3" y="690" type="qcurve" smooth="yes"/>
      <point x="3" y="632" type="line"/>
      <point x="38" y="632" type="line"/>
      <point x="38" y="692" type="line" smooth="yes"/>
      <point x="38" y="785"/>
      <point x="178" y="785"/>
      <point x="178" y="692" type="qcurve" smooth="yes"/>
      <point x="178" y="570" type="line" smooth="yes"/>
      <point x="178" y="515"/>
      <point x="162" y="496" type="qcurve" smooth="yes"/>
      <point x="144" y="475"/>
      <point x="91" y="475" type="qcurve"/>
      <point x="91" y="121" type="line"/>
      <point x="125" y="121" type="line"/>
      <point x="125" y="451" type="line"/>
      <point x="173" y="457"/>
      <point x="196" y="490" type="qcurve"/>
      <point x="212" y="515"/>
    </contour>
    <contour>
      <point x="123" y="4" type="line"/>
      <point x="123" y="41" type="line"/>
      <point x="91" y="41" type="line"/>
      <point x="91" y="4" type="line"/>
    </contour>
  </outline>
</glyph>
<glyph name="A" format="1">
  <advance width="280"/>
  <unicode hex="0041"/>
  <outline>
    <contour>
      <point x="270" y="0" type="line"/>
      <point x="154" y="804" type="line"/>
      <point x="126" y="804" type="line"/>
      <point x="10" y="0" type="line"/>
      <point x="40" y="0" type="line"/>
      <point x="95" y="379" type="line"/>
      <point x="184" y="379" type="line"/>
      <point x="237" y="0" type="line"/>
    </contour>
    <contour>
      <point x="180" y="410" type="line"/>
      <point x="99" y="410" type="line"/>
      <point x="140" y="695" type="line"/>
    </contour>
  </outline>
</glyph>
<glyph name="B" format="1">
  <advance width="279"/>
  <unicode hex="0042"/>
  <outline>
    <contour>
      <point x="244" y="125" type="qcurve" smooth="yes"/>
      <point x="244" y="366" type="line" smooth="yes"/>
      <point x="244" y="446"/>
      <point x="187" y="464" type="qcurve"/>
      <point x="244" y="483"/>
      <point x="244" y="561" type="qcurve" smooth="yes"/>
      <point x="244" y="692" type="line" smooth="yes"/>
      <point x="244" y="804"/>
      <point x="139" y="804" type="qcurve" smooth="yes"/>
      <point x="38" y="804" type="line"/>
      <point x="38" y="0" type="line"/>
      <point x="139" y="0" type="line" smooth="yes"/>
      <point x="205" y="0"/>
      <point x="227" y="30" type="qcurve"/>
      <point x="244" y="56"/>
    </contour>
    <contour>
      <point x="212" y="114" type="line" smooth="yes"/>
      <point x="212" y="62"/>
      <point x="197" y="46" type="qcurve"/>
      <point x="180" y="26"/>
      <point x="130" y="26" type="qcurve" smooth="yes"/>
      <point x="72" y="26" type="line"/>
      <point x="72" y="451" type="line"/>
      <point x="130" y="451" type="line" smooth="yes"/>
      <point x="180" y="451"/>
      <point x="197" y="431" type="qcurve"/>
      <point x="212" y="415"/>
      <point x="212" y="364" type="qcurve" smooth="yes"/>
    </contour>
    <contour>
      <point x="212" y="565" type="line" smooth="yes"/>
      <point x="212" y="512"/>
      <point x="197" y="496" type="qcurve"/>
      <point x="180" y="476"/>
      <point x="130" y="476" type="qcurve" smooth="yes"/>
      <point x="72" y="476" type="line"/>
      <point x="72" y="777" type="line"/>
      <point x="130" y="777" type="line" smooth="yes"/>
      <point x="180" y="777"/>
      <point x="197" y="757" type="qcurve" smooth="yes"/>
      <point x="212" y="740"/>
      <point x="212" y="689" type="qcurve" smooth="yes"/>
    </contour>
  </outline>
</glyph>
<glyph name="L" format="1">
  <advance width="246"/>
  <unicode hex="004C"/>
  <outline>
    <contour>
      <point x="246" y="0" type="line"/>
      <point x="246" y="26" type="line"/>
      <point x="75" y="26" type="line"/>
      <point x="75" y="804" type="line"/>
      <point x="41" y="804" type="line"/>
      <point x="41" y="0" type="line"/>
    </contour>
  </outline>
</glyph>
<glyph name="M" format="1">
  <advance width="459"/>
  <unicode hex="004D"/>
  <outline>
    <contour>
      <point x="419" y="0" type="line"/>
      <point x="419" y="804" type="line"/>
      <point x="384" y="804" type="line"/>
      <point x="227" y="125" type="line"/>
      <point x="76" y="804" type="line"/>
      <point x="41" y="804" type="line"/>
      <point x="41" y="0" type="line"/>
      <point x="75" y="0" type="line"/>
      <point x="75" y="666" type="line"/>
      <point x="214" y="49" type="line"/>
      <point x="241" y="49" type="line"/>
      <point x="386" y="674" type="line"/>
      <point x="386" y="0" type="line"/>
    </contour>
  </outline>
</glyph>
<glyph name="P" format="1">
  <advance width="280"/>
  <unicode hex="0050"/>
  <outline>
    <contour>
      <point x="254" y="562" type="qcurve" smooth="yes"/>
      <point x="254" y="679" type="line" smooth="yes"/>
      <point x="254" y="746"/>
      <point x="237" y="772" type="qcurve"/>
      <point x="214" y="804"/>
      <point x="149" y="804" type="qcurve" smooth="yes"/>
      <point x="48" y="804" type="line"/>
      <point x="48" y="0" type="line"/>
      <point x="82" y="0" type="line"/>
      <point x="82" y="452" type="line"/>
      <point x="149" y="452" type="line" smooth="yes"/>
      <point x="254" y="452"/>
    </contour>
    <contour>
      <point x="222" y="566" type="line" smooth="yes"/>
      <point x="222" y="515"/>
      <point x="207" y="497" type="qcurve"/>
      <point x="189" y="479"/>
      <point x="140" y="479" type="qcurve" smooth="yes"/>
      <point x="82" y="479" type="line"/>
      <point x="82" y="776" type="line"/>
      <point x="140" y="776" type="line" smooth="yes"/>
      <point x="189" y="776"/>
      <point x="207" y="757" type="qcurve" smooth="yes"/>
      <point x="222" y="740"/>
      <point x="222" y="690" type="qcurve" smooth="yes"/>
    </contour>
  </outline>
</glyph>
<glyph name="T" format="1">
  <advance width="274"/>
  <unicode hex="0054"/>
  <outline>
    <contour>
      <point x="265" y="776" type="line"/>
      <point x="265" y="804" type="line"/>
      <point x="9" y="804" type="line"/>
      <point x="9" y="776" type="line"/>
      <point x="122" y="776" type="line"/>
      <point x="122" y="0" type="line"/>
      <point x="156" y="0" type="line"/>
      <point x="156" y="776" type="line"/>
    </contour>
  </outline>
</glyph>
<glyph name="W" format="1">
  <advance width="459"/>
  <unicode hex="0057"/>
  <outline>
    <contour>
      <point x="420" y="114" type="qcurve" smooth="yes"/>
      <point x="420" y="804" type="line"/>
      <point x="386" y="804" type="line"/>
      <point x="386" y="112" type="line" smooth="yes"/>
      <point x="386" y="17"/>
      <point x="316" y="17" type="qcurve" smooth="yes"/>
      <point x="276" y="17"/>
      <point x="257" y="101" type="qcurve"/>
      <point x="246" y="159"/>
      <point x="246" y="221" type="qcurve" smooth="yes"/>
      <point x="246" y="804" type="line"/>
      <point x="212" y="804" type="line"/>
      <point x="212" y="221" type="line" smooth="yes"/>
      <point x="212" y="198"/>
      <point x="210" y="158" type="qcurve"/>
      <point x="207" y="125"/>
      <point x="200" y="101" type="qcurve"/>
      <point x="180" y="17"/>
      <point x="142" y="17" type="qcurve" smooth="yes"/>
      <point x="72" y="17"/>
      <point x="72" y="112" type="qcurve" smooth="yes"/>
      <point x="72" y="804" type="line"/>
      <point x="39" y="804" type="line"/>
      <point x="39" y="114" type="line" smooth="yes"/>
      <point x="39" y="52"/>
      <point x="90" y="-9"/>
      <point x="142" y="-8" type="qcurve" smooth="yes"/>
      <point x="194" y="-8"/>
      <point x="216" y="55" type="qcurve" smooth="yes"/>
      <point x="225" y="79"/>
      <point x="230" y="131" type="qcurve"/>
      <point x="230" y="127"/>
      <point x="231" y="110"/>
      <point x="232" y="106" type="qcurve"/>
      <point x="232" y="97"/>
      <point x="234" y="89" type="qcurve"/>
      <point x="243" y="-5"/>
      <point x="316" y="-8" type="qcurve"/>
      <point x="368" y="-9"/>
      <point x="420" y="52"/>
    </contour>
  </outline>
</glyph>
<glyph name="asciicircum" format="1">
  <advance width="332"/>
  <unicode hex="005E"/>
  <outline>
    <contour>
      <point x="220" y="536" type="line"/>
      <point x="180" y="794" type="line"/>
      <point x="152" y="794" type="line"/>
      <point x="112" y="536" type="line"/>
      <point x="145" y="536" type="line"/>
      <point x="166" y="670" type="line"/>
      <point x="187" y="536" type="line"/>
    </contour>
  </outline>
</glyph>
<glyph name="underscore" format="1">
  <advance width="558"/>
  <unicode hex="005F"/>
  <outline>
    <contour>
      <point x="559" y="-100" type="line"/>
      <point x="559" y="-67" type="line"/>
      <point x="-1" y="-67" type="line"/>
      <point x="-1" y="-100" type="line"/>
    </contour>
  </outline>
</glyph>
<glyph name="grave" format="1">
  <advance width="150"/>
  <unicode hex="0060"/>
  <outline>
    <contour>
      <point x="122" y="665" type="line"/>
      <point x="59" y="789" type="line"/>
      <point x="25" y="771" type="line"/>
      <point x="87" y="647" type="line"/>
    </contour>
  </outline>
</glyph>
<glyph name="b" format="1">
  <advance width="275"/>
  <unicode hex="0062"/>
  <outline>
    <contour>
      <point x="246" y="114" type="qcurve" smooth="yes"/>
      <point x="246" y="449" type="line" smooth="yes"/>
      <point x="246" y="571"/>
      <point x="142" y="571" type="qcurve" smooth="yes"/>
      <point x="97" y="571"/>
      <point x="72" y="551" type="qcurve"/>
      <point x="72" y="794" type="line"/>
      <point x="39" y="794" type="line"/>
      <point x="39" y="-4" type="line"/>
      <point x="72" y="-4" type="line"/>
      <point x="72" y="12" type="line"/>
      <point x="98" y="-8"/>
      <point x="142" y="-8" type="qcurve" smooth="yes"/>
      <point x="246" y="-8"/>
    </contour>
    <contour>
      <point x="212" y="112" type="line" smooth="yes"/>
      <point x="212" y="17"/>
      <point x="72" y="17"/>
      <point x="72" y="112" type="qcurve" smooth="yes"/>
      <point x="72" y="451" type="line" smooth="yes"/>
      <point x="72" y="545"/>
      <point x="212" y="545"/>
      <point x="212" y="451" type="qcurve" smooth="yes"/>
    </contour>
  </outline>
</glyph>
<glyph name="c" format="1">
  <advance width="272"/>
  <unicode hex="0063"/>
  <outline>
    <contour>
      <point x="246" y="114" type="qcurve" smooth="yes"/>
      <point x="246" y="176" type="line"/>
      <point x="212" y="176" type="line"/>
      <point x="212" y="112" type="line" smooth="yes"/>
      <point x="212" y="17"/>
      <point x="72" y="17"/>
      <point x="72" y="112" type="qcurve" smooth="yes"/>
      <point x="72" y="451" type="line" smooth="yes"/>
      <point x="72" y="545"/>
      <point x="212" y="545"/>
      <point x="212" y="451" type="qcurve" smooth="yes"/>
      <point x="212" y="392" type="line"/>
      <point x="246" y="392" type="line"/>
      <point x="246" y="449" type="line" smooth="yes"/>
      <point x="246" y="571"/>
      <point x="142" y="571" type="qcurve" smooth="yes"/>
      <point x="39" y="571"/>
      <point x="39" y="449" type="qcurve" smooth="yes"/>
      <point x="39" y="114" type="line" smooth="yes"/>
      <point x="39" y="-8"/>
      <point x="142" y="-8" type="qcurve" smooth="yes"/>
      <point x="246" y="-8"/>
    </contour>
  </outline>
</glyph>
<glyph name="h" format="1">
  <advance width="285"/>
  <unicode hex="0068"/>
  <outline>
    <contour>
      <point x="246" y="-8" type="line"/>
      <point x="246" y="452" type="line" smooth="yes"/>
      <point x="246" y="574"/>
      <point x="142" y="574" type="qcurve" smooth="yes"/>
      <point x="96" y="574"/>
      <point x="70" y="551" type="qcurve"/>
      <point x="70" y="804" type="line"/>
      <point x="36" y="804" type="line"/>
      <point x="36" y="-8" type="line"/>
      <point x="72" y="-8" type="line"/>
      <point x="72" y="454" type="line" smooth="yes"/>
      <point x="72" y="549"/>
      <point x="212" y="549"/>
      <point x="212" y="454" type="qcurve" smooth="yes"/>
      <point x="212" y="-8" type="line"/>
    </contour>
  </outline>
</glyph>
<glyph name="i" format="1">
  <advance width="116"/>
  <unicode hex="0069"/>
  <outline>
    <contour>
      <point x="75" y="0" type="line"/>
      <point x="75" y="574" type="line"/>
      <point x="41" y="574" type="line"/>
      <point x="41" y="0" type="line"/>
    </contour>
    <contour>
      <point x="75" y="664" type="line"/>
      <point x="75" y="696" type="line"/>
      <point x="41" y="696" type="line"/>
      <point x="41" y="664" type="line"/>
    </contour>
  </outline>
</glyph>
<glyph name="j" format="1">
  <advance width="104"/>
  <unicode hex="006A"/>
  <outline>
    <contour>
      <point x="68" y="-110" type="qcurve" smooth="yes"/>
      <point x="68" y="569" type="line"/>
      <point x="36" y="569" type="line"/>
      <point x="36" y="-113" type="line" smooth="yes"/>
      <point x="36" y="-206"/>
      <point x="-35" y="-206" type="qcurve"/>
      <point x="-35" y="-231" type="line"/>
      <point x="68" y="-231"/>
    </contour>
    <contour>
      <point x="71" y="665" type="line"/>
      <point x="71" y="697" type="line"/>
      <point x="38" y="697" type="line"/>
      <point x="38" y="665" type="line"/>
    </contour>
  </outline>
</glyph>
<glyph name="k" format="1">
  <advance width="281"/>
  <unicode hex="006B"/>
  <outline>
    <contour>
      <point x="245" y="0" type="line"/>
      <point x="245" y="246" type="line" smooth="yes"/>
      <point x="245" y="329"/>
      <point x="193" y="344" type="qcurve"/>
      <point x="245" y="362"/>
      <point x="245" y="441" type="qcurve" smooth="yes"/>
      <point x="245" y="575" type="line"/>
      <point x="213" y="574" type="line"/>
      <point x="213" y="445" type="line" smooth="yes"/>
      <point x="213" y="392"/>
      <point x="198" y="376" type="qcurve"/>
      <point x="181" y="356"/>
      <point x="131" y="356" type="qcurve" smooth="yes"/>
      <point x="73" y="356" type="line"/>
      <point x="73" y="804" type="line"/>
      <point x="39" y="804" type="line"/>
      <point x="39" y="0" type="line"/>
      <point x="73" y="0" type="line"/>
      <point x="73" y="326" type="line"/>
      <point x="131" y="326" type="line" smooth="yes"/>
      <point x="184" y="326"/>
      <point x="196" y="314" type="qcurve" smooth="yes"/>
      <point x="213" y="297"/>
      <point x="213" y="244" type="qcurve" smooth="yes"/>
      <point x="213" y="0" type="line"/>
    </contour>
  </outline>
</glyph>
<glyph name="l" format="1">
  <advance width="116"/>
  <unicode hex="006C"/>
  <outline>
    <contour>
      <point x="75" y="0" type="line"/>
      <point x="75" y="804" type="line"/>
      <point x="41" y="771" type="line"/>
      <point x="41" y="0" type="line"/>
    </contour>
  </outline>
</glyph>
<glyph name="n" format="1">
  <advance width="279"/>
  <unicode hex="006E"/>
  <outline>
    <contour>
      <point x="246" y="-8" type="line"/>
      <point x="246" y="452" type="line" smooth="yes"/>
      <point x="246" y="574"/>
      <point x="142" y="574" type="qcurve" smooth="yes"/>
      <point x="96" y="574"/>
      <point x="70" y="551" type="qcurve"/>
      <point x="70" y="574" type="line"/>
      <point x="36" y="574" type="line"/>
      <point x="36" y="-8" type="line"/>
      <point x="72" y="-8" type="line"/>
      <point x="72" y="454" type="line" smooth="yes"/>
      <point x="72" y="549"/>
      <point x="212" y="549"/>
      <point x="212" y="454" type="qcurve" smooth="yes"/>
      <point x="212" y="-8" type="line"/>
    </contour>
  </outline>
</glyph>
<glyph name="o" format="1">
  <advance width="277"/>
  <unicode hex="006F"/>
  <outline>
    <contour>
      <point x="246" y="114" type="qcurve" smooth="yes"/>
      <point x="246" y="449" type="line" smooth="yes"/>
      <point x="246" y="571"/>
      <point x="142" y="571" type="qcurve" smooth="yes"/>
      <point x="39" y="571"/>
      <point x="39" y="449" type="qcurve" smooth="yes"/>
      <point x="39" y="114" type="line" smooth="yes"/>
      <point x="39" y="-8"/>
      <point x="142" y="-8" type="qcurve" smooth="yes"/>
      <point x="246" y="-8"/>
    </contour>
    <contour>
      <point x="212" y="112" type="line" smooth="yes"/>
      <point x="212" y="17"/>
      <point x="72" y="17"/>
      <point x="72" y="112" type="qcurve" smooth="yes"/>
      <point x="72" y="451" type="line" smooth="yes"/>
      <point x="72" y="545"/>
      <point x="212" y="545"/>
      <point x="212" y="451" type="qcurve" smooth="yes"/>
    </contour>
  </outline>
</glyph>
<glyph name="p" format="1">
  <advance width="275"/>
  <unicode hex="0070"/>
  <outline>
    <contour>
      <point x="241" y="114" type="qcurve" smooth="yes"/>
      <point x="241" y="449" type="line" smooth="yes"/>
      <point x="241" y="570"/>
      <point x="136" y="570" type="qcurve" smooth="yes"/>
      <point x="89" y="570"/>
      <point x="66" y="550" type="qcurve"/>
      <point x="66" y="566" type="line"/>
      <point x="34" y="566" type="line"/>
      <point x="34" y="-231" type="line"/>
      <point x="66" y="-231" type="line"/>
      <point x="66" y="11" type="line"/>
      <point x="89" y="-9"/>
      <point x="136" y="-9" type="qcurve" smooth="yes"/>
      <point x="241" y="-9"/>
    </contour>
    <contour>
      <point x="207" y="111" type="line" smooth="yes"/>
      <point x="207" y="17"/>
      <point x="136" y="17" type="qcurve" smooth="yes"/>
      <point x="67" y="17"/>
      <point x="67" y="111" type="qcurve" smooth="yes"/>
      <point x="67" y="450" type="line" smooth="yes"/>
      <point x="67" y="545"/>
      <point x="136" y="545" type="qcurve" smooth="yes"/>
      <point x="207" y="545"/>
      <point x="207" y="450" type="qcurve" smooth="yes"/>
    </contour>
  </outline>
</glyph>
<glyph name="q" format="1">
  <advance width="275"/>
  <unicode hex="0071"/>
  <outline>
    <contour>
      <point x="241" y="-231" type="line"/>
      <point x="241" y="566" type="line"/>
      <point x="207" y="566" type="line"/>
      <point x="207" y="550" type="line"/>
      <point x="184" y="570"/>
      <point x="137" y="570" type="qcurve" smooth="yes"/>
      <point x="34" y="570"/>
      <point x="34" y="449" type="qcurve" smooth="yes"/>
      <point x="34" y="114" type="line" smooth="yes"/>
      <point x="34" y="-9"/>
      <point x="137" y="-9" type="qcurve" smooth="yes"/>
      <point x="184" y="-9"/>
      <point x="207" y="11" type="qcurve"/>
      <point x="207" y="-231" type="line"/>
    </contour>
    <contour>
      <point x="207" y="111" type="line" smooth="yes"/>
      <point x="207" y="17"/>
      <point x="67" y="17"/>
      <point x="67" y="111" type="qcurve" smooth="yes"/>
      <point x="67" y="450" type="line" smooth="yes"/>
      <point x="67" y="545"/>
      <point x="207" y="545"/>
      <point x="207" y="450" type="qcurve" smooth="yes"/>
    </contour>
  </outline>
</glyph>
<glyph name="r" format="1">
  <advance width="259"/>
  <unicode hex="0072"/>
  <outline>
    <contour>
      <point x="247" y="385" type="line"/>
      <point x="247" y="446" type="line" smooth="yes"/>
      <point x="247" y="506"/>
      <point x="228" y="538" type="qcurve" smooth="yes"/>
      <point x="208" y="570"/>
      <point x="155" y="570" type="qcurve" smooth="yes"/>
      <point x="134" y="570"/>
      <point x="110" y="564" type="qcurve"/>
      <point x="88" y="560"/>
      <point x="75" y="550" type="qcurve"/>
      <point x="75" y="574" type="line"/>
      <point x="39" y="574" type="line"/>
      <point x="39" y="-3" type="line"/>
      <point x="74" y="-3" type="line"/>
      <point x="74" y="185" type="line"/>
      <point x="74" y="317" type="line"/>
      <point x="74" y="403" type="line"/>
      <point x="74" y="452" type="line"/>
      <point x="74" y="476" type="line"/>
      <point x="75" y="480"/>
      <point x="75" y="484" type="qcurve" smooth="yes"/>
      <point x="88" y="542"/>
      <point x="142" y="542" type="qcurve" smooth="yes"/>
      <point x="187" y="542"/>
      <point x="200" y="516" type="qcurve" smooth="yes"/>
      <point x="212" y="492"/>
      <point x="212" y="449" type="qcurve" smooth="yes"/>
      <point x="212" y="385" type="line"/>
    </contour>
  </outline>
</glyph>
<glyph name="s" format="1">
  <advance width="267"/>
  <unicode hex="0073"/>
  <outline>
    <contour>
      <point x="239" y="229" type="line"/>
      <point x="238" y="229" type="line"/>
      <point x="229" y="319"/>
      <point x="137" y="319" type="qcurve" smooth="yes"/>
      <point x="102" y="319"/>
      <point x="84" y="344" type="qcurve" smooth="yes"/>
      <point x="67" y="369"/>
      <point x="67" y="422" type="qcurve" smooth="yes"/>
      <point x="67" y="451" type="line" smooth="yes"/>
      <point x="67" y="545"/>
      <point x="207" y="545"/>
      <point x="207" y="451" type="qcurve" smooth="yes"/>
      <point x="207" y="404" type="line"/>
      <point x="239" y="404" type="line"/>
      <point x="239" y="449" type="line" smooth="yes"/>
      <point x="239" y="571"/>
      <point x="137" y="571" type="qcurve" smooth="yes"/>
      <point x="27" y="571"/>
      <point x="32" y="449" type="qcurve"/>
      <point x="32" y="415" type="line" smooth="yes"/>
      <point x="32" y="294"/>
      <point x="137" y="294" type="qcurve" smooth="yes"/>
      <point x="207" y="294"/>
      <point x="207" y="219" type="qcurve" smooth="yes"/>
      <point x="207" y="112" type="line" smooth="yes"/>
      <point x="207" y="19"/>
      <point x="67" y="19"/>
      <point x="67" y="112" type="qcurve" smooth="yes"/>
      <point x="67" y="171" type="line"/>
      <point x="32" y="171" type="line"/>
      <point x="32" y="114" type="line" smooth="yes"/>
      <point x="32" y="-8"/>
      <point x="137" y="-8" type="qcurve" smooth="yes"/>
      <point x="239" y="-8"/>
      <point x="239" y="114" type="qcurve" smooth="yes"/>
    </contour>
  </outline>
</glyph>
<glyph name="t" format="1">
  <advance width="190"/>
  <unicode hex="0074"/>
  <outline>
    <contour>
      <point x="186" y="545" type="line"/>
      <point x="186" y="575" type="line"/>
      <point x="75" y="575" type="line"/>
      <point x="75" y="700" type="line"/>
      <point x="41" y="700" type="line"/>
      <point x="41" y="0" type="line"/>
      <point x="75" y="0" type="line"/>
      <point x="75" y="545" type="line"/>
    </contour>
  </outline>
</glyph>
<glyph name="v" format="1">
  <advance width="219"/>
  <unicode hex="0076"/>
  <outline>
    <contour>
      <point x="214" y="572" type="line"/>
      <point x="180" y="572" type="line"/>
      <point x="111" y="125" type="line"/>
      <point x="43" y="572" type="line"/>
      <point x="9" y="572" type="line"/>
      <point x="98" y="0" type="line"/>
      <point x="125" y="0" type="line"/>
    </contour>
  </outline>
</glyph>
<glyph name="x" format="1">
  <advance width="245"/>
  <unicode hex="0078"/>
  <outline>
    <contour>
      <point x="237" y="2" type="line"/>
      <point x="148" y="304" type="line"/>
      <point x="228" y="570" type="line"/>
      <point x="193" y="570" type="line"/>
      <point x="124" y="349" type="line"/>
      <point x="58" y="570" type="line"/>
      <point x="25" y="570" type="line"/>
      <point x="104" y="296" type="line"/>
      <point x="14" y="2" type="line"/>
      <point x="50" y="2" type="line"/>
      <point x="125" y="256" type="line"/>
      <point x="204" y="2" type="line"/>
    </contour>
  </outline>
</glyph>
<glyph name="z" format="1">
  <advance width="245"/>
  <unicode hex="007A"/>
  <outline>
    <contour>
      <point x="239" y="575" type="line"/>
      <point x="18" y="575" type="line"/>
      <point x="18" y="547" type="line"/>
      <point x="198" y="547" type="line"/>
      <point x="7" y="0" type="line"/>
      <point x="227" y="0" type="line"/>
      <point x="227" y="26" type="line"/>
      <point x="47" y="26" type="line"/>
    </contour>
  </outline>
</glyph>
<glyph name="braceright" format="1">
  <advance width="270"/>
  <unicode hex="007D"/>
  <outline>
    <contour>
      <point x="235" y="341" type="line"/>
      <point x="235" y="369" type="line"/>
      <point x="114" y="407" type="line"/>
      <point x="136" y="745" type="line" smooth="yes"/>
      <point x="140" y="799"/>
      <point x="115" y="832" type="qcurve"/>
      <point x="93" y="863"/>
      <point x="34" y="866" type="qcurve"/>
      <point x="34" y="840" type="line"/>
      <point x="77" y="836"/>
      <point x="91" y="812" type="qcurve" smooth="yes"/>
      <point x="105" y="789"/>
      <point x="102" y="746" type="qcurve" smooth="yes"/>
      <point x="81" y="384" type="line"/>
      <point x="165" y="355" type="line"/>
      <point x="81" y="327" type="line"/>
      <point x="102" y="-113" type="line"/>
      <point x="105" y="-153"/>
      <point x="91" y="-179" type="qcurve" smooth="yes"/>
      <point x="78" y="-204"/>
      <point x="34" y="-206" type="qcurve"/>
      <point x="34" y="-231" type="line"/>
      <point x="94" y="-229"/>
      <point x="116" y="-198" type="qcurve" smooth="yes"/>
      <point x="139" y="-166"/>
      <point x="136" y="-110" type="qcurve" smooth="yes"/>
      <point x="114" y="304" type="line"/>
    </contour>
  </outline>
</glyph>
<glyph name="cent" format="1">
  <advance width="275"/>
  <unicode hex="00A2"/>
  <outline>
    <contour>
      <point x="246" y="226" type="qcurve" smooth="yes"/>
      <point x="246" y="288" type="line"/>
      <point x="212" y="288" type="line"/>
      <point x="212" y="224" type="line" smooth="yes"/>
      <point x="212" y="141"/>
      <point x="160" y="132" type="qcurve"/>
      <point x="160" y="656" type="line"/>
      <point x="212" y="646"/>
      <point x="212" y="563" type="qcurve" smooth="yes"/>
      <point x="212" y="504" type="line"/>
      <point x="246" y="504" type="line"/>
      <point x="246" y="561" type="line" smooth="yes"/>
      <point x="246" y="673"/>
      <point x="160" y="682" type="qcurve"/>
      <point x="160" y="766" type="line"/>
      <point x="126" y="766" type="line"/>
      <point x="126" y="682" type="line"/>
      <point x="39" y="673"/>
      <point x="39" y="561" type="qcurve" smooth="yes"/>
      <point x="39" y="226" type="line" smooth="yes"/>
      <point x="39" y="115"/>
      <point x="126" y="106" type="qcurve"/>
      <point x="126" y="41" type="line"/>
      <point x="160" y="41" type="line"/>
      <point x="160" y="106" type="line"/>
      <point x="246" y="115"/>
    </contour>
    <contour>
      <point x="126" y="131" type="line"/>
      <point x="72" y="140"/>
      <point x="72" y="224" type="qcurve" smooth="yes"/>
      <point x="72" y="563" type="line" smooth="yes"/>
      <point x="72" y="646"/>
      <point x="126" y="656" type="qcurve"/>
    </contour>
  </outline>
</glyph>
<glyph name="sterling" format="1">
  <advance width="246"/>
  <unicode hex="00A3"/>
  <outline>
    <contour>
      <point x="209" y="322" type="line"/>
      <point x="209" y="357" type="line"/>
      <point x="75" y="357" type="line"/>
      <point x="75" y="462" type="line"/>
      <point x="209" y="462" type="line"/>
      <point x="209" y="496" type="line"/>
      <point x="75" y="496" type="line"/>
      <point x="75" y="804" type="line"/>
      <point x="41" y="804" type="line"/>
      <point x="41" y="496" type="line"/>
      <point x="-2" y="496" type="line"/>
      <point x="-2" y="462" type="line"/>
      <point x="41" y="462" type="line"/>
      <point x="41" y="357" type="line"/>
      <point x="-2" y="357" type="line"/>
      <point x="-2" y="322" type="line"/>
      <point x="41" y="322" type="line"/>
      <point x="41" y="0" type="line"/>
      <point x="246" y="0" type="line"/>
      <point x="246" y="26" type="line"/>
      <point x="75" y="26" type="line"/>
      <point x="75" y="322" type="line"/>
    </contour>
  </outline>
</glyph>
<glyph name="yen" format="1">
  <advance width="263"/>
  <unicode hex="00A5"/>
  <outline>
    <contour>
      <point x="263" y="804" type="line"/>
      <point x="229" y="804" type="line"/>
      <point x="133" y="460" type="line"/>
      <point x="40" y="804" type="line"/>
      <point x="3" y="804" type="line"/>
      <point x="115" y="414" type="line"/>
      <point x="115" y="366" type="line"/>
      <point x="27" y="366" type="line"/>
      <point x="27" y="331" type="line"/>
      <point x="115" y="331" type="line"/>
      <point x="115" y="254" type="line"/>
      <point x="27" y="254" type="line"/>
      <point x="27" y="219" type="line"/>
      <point x="115" y="219" type="line"/>
      <point x="115" y="0" type="line"/>
      <point x="149" y="0" type="line"/>
      <point x="149" y="219" type="line"/>
      <point x="239" y="219" type="line"/>
      <point x="239" y="254" type="line"/>
      <point x="149" y="254" type="line"/>
      <point x="149" y="331" type="line"/>
      <point x="239" y="331" type="line"/>
      <point x="239" y="366" type="line"/>
      <point x="149" y="366" type="line"/>
      <point x="149" y="412" type="line"/>
    </contour>
  </outline>
</glyph>
<glyph name="brokenbar" format="1">
  <advance width="244"/>
  <unicode hex="00A6"/>
  <outline>
    <contour>
      <point x="141" y="369" type="line"/>
      <point x="141" y="782" type="line"/>
      <point x="101" y="782" type="line"/>
      <point x="101" y="369" type="line"/>
    </contour>
    <contour>
      <point x="141" y="-191" type="line"/>
      <point x="141" y="222" type="line"/>
      <point x="101" y="222" type="line"/>
      <point x="101" y="-191" type="line"/>
    </contour>
  </outline>
</glyph>
<glyph name="section" format="1">
  <advance width="285"/>
  <unicode hex="00A7"/>
  <outline>
    <contour>
      <point x="247" y="21" type="line"/>
      <point x="247" y="32" type="line"/>
      <point x="246" y="35"/>
      <point x="246" y="39" type="qcurve" smooth="yes"/>
      <point x="246" y="43" type="line"/>
      <point x="246" y="54" type="line"/>
      <point x="245" y="54" type="line"/>
      <point x="239" y="113"/>
      <point x="196" y="134" type="qcurve"/>
      <point x="244" y="154"/>
      <point x="246" y="229" type="qcurve"/>
      <point x="246" y="275" type="line" smooth="yes"/>
      <point x="246" y="286"/>
      <point x="244" y="310" type="qcurve"/>
      <point x="241" y="325"/>
      <point x="236" y="340" type="qcurve" smooth="yes"/>
      <point x="214" y="401"/>
      <point x="142" y="401" type="qcurve" smooth="yes"/>
      <point x="72" y="401"/>
      <point x="72" y="475" type="qcurve" smooth="yes"/>
      <point x="72" y="582" type="line" smooth="yes"/>
      <point x="72" y="675"/>
      <point x="141" y="675" type="qcurve" smooth="yes"/>
      <point x="212" y="675"/>
      <point x="212" y="582" type="qcurve" smooth="yes"/>
      <point x="212" y="522" type="line"/>
      <point x="246" y="522" type="line"/>
      <point x="246" y="580" type="line" smooth="yes"/>
      <point x="246" y="701"/>
      <point x="141" y="701" type="qcurve" smooth="yes"/>
      <point x="39" y="701"/>
      <point x="39" y="580" type="qcurve" smooth="yes"/>
      <point x="39" y="465" type="line"/>
      <point x="40" y="465" type="line"/>
      <point x="47" y="407"/>
      <point x="89" y="386" type="qcurve"/>
      <point x="41" y="364"/>
      <point x="39" y="290" type="qcurve"/>
      <point x="39" y="245" type="line" smooth="yes"/>
      <point x="39" y="206"/>
      <point x="49" y="179" type="qcurve" smooth="yes"/>
      <point x="72" y="119"/>
      <point x="144" y="119" type="qcurve" smooth="yes"/>
      <point x="214" y="119"/>
      <point x="214" y="44" type="qcurve" smooth="yes"/>
      <point x="214" y="-63" type="line" smooth="yes"/>
      <point x="214" y="-156"/>
      <point x="74" y="-156"/>
      <point x="74" y="-63" type="qcurve" smooth="yes"/>
      <point x="74" y="-4" type="line"/>
      <point x="39" y="-4" type="line"/>
      <point x="39" y="-61" type="line" smooth="yes"/>
      <point x="39" y="-183"/>
      <point x="144" y="-183" type="qcurve" smooth="yes"/>
      <point x="246" y="-183"/>
      <point x="246" y="-61" type="qcurve" smooth="yes"/>
      <point x="246" y="-9" type="line"/>
    </contour>
    <contour>
      <point x="212" y="242" type="line" smooth="yes"/>
      <point x="212" y="149"/>
      <point x="141" y="149" type="qcurve" smooth="yes"/>
      <point x="100" y="149"/>
      <point x="84" y="176" type="qcurve" smooth="yes"/>
      <point x="74" y="192"/>
      <point x="74" y="239" type="qcurve" smooth="yes"/>
      <point x="74" y="276" type="line" smooth="yes"/>
      <point x="74" y="370"/>
      <point x="144" y="370" type="qcurve" smooth="yes"/>
      <point x="184" y="370"/>
      <point x="201" y="344" type="qcurve"/>
      <point x="211" y="323"/>
      <point x="211" y="281" type="qcurve" smooth="yes"/>
      <point x="211" y="271" type="line"/>
      <point x="212" y="271" type="line"/>
    </contour>
  </outline>
</glyph>
<glyph name="dieresis" format="1">
  <advance width="174"/>
  <unicode hex="00A8"/>
  <outline>
    <contour>
      <point x="54" y="687" type="line"/>
      <point x="54" y="724" type="line"/>
      <point x="21" y="724" type="line"/>
      <point x="21" y="687" type="line"/>
    </contour>
    <contour>
      <point x="152" y="687" type="line"/>
      <point x="152" y="724" type="line"/>
      <point x="120" y="724" type="line"/>
      <point x="120" y="687" type="line"/>
    </contour>
  </outline>
</glyph>
<glyph name="ordfeminine" format="1">
  <advance width="285"/>
  <unicode hex="00AA"/>
  <outline>
    <contour>
      <point x="246" y="459" type="line"/>
      <point x="246" y="679" type="line" smooth="yes"/>
      <point x="246" y="801"/>
      <point x="141" y="801" type="qcurve" smooth="yes"/>
      <point x="39" y="801"/>
      <point x="39" y="679" type="qcurve" smooth="yes"/>
      <point x="39" y="671" type="line"/>
      <point x="72" y="671" type="line"/>
      <point x="72" y="681" type="line" smooth="yes"/>
      <point x="72" y="774"/>
      <point x="141" y="774" type="qcurve" smooth="yes"/>
      <point x="212" y="774"/>
      <point x="212" y="681" type="qcurve" smooth="yes"/>
      <point x="212" y="600" type="line"/>
      <point x="189" y="620"/>
      <point x="141" y="620" type="qcurve" smooth="yes"/>
      <point x="39" y="620"/>
      <point x="39" y="499" type="qcurve" smooth="yes"/>
      <point x="39" y="459" type="line" smooth="yes"/>
      <point x="39" y="336"/>
      <point x="141" y="336" type="qcurve" smooth="yes"/>
      <point x="187" y="336"/>
      <point x="210" y="356" type="qcurve"/>
      <point x="210" y="340" type="line"/>
      <point x="244" y="340" type="line"/>
      <point x="244" y="426" type="line" smooth="yes"/>
      <point x="244" y="429"/>
      <point x="246" y="439"/>
      <point x="246" y="441" type="qcurve" smooth="yes"/>
    </contour>
    <contour>
      <point x="210" y="429" type="line"/>
      <point x="203" y="362"/>
      <point x="141" y="362" type="qcurve" smooth="yes"/>
      <point x="100" y="362"/>
      <point x="84" y="390" type="qcurve" smooth="yes"/>
      <point x="72" y="411"/>
      <point x="72" y="456" type="qcurve" smooth="yes"/>
      <point x="72" y="501" type="line" smooth="yes"/>
      <point x="72" y="594"/>
      <point x="141" y="594" type="qcurve" smooth="yes"/>
      <point x="204" y="594"/>
      <point x="210" y="527" type="qcurve"/>
    </contour>
  </outline>
</glyph>
<glyph name="logicalnot" format="1">
  <advance width="497"/>
  <unicode hex="00AC"/>
  <outline>
    <contour>
      <point x="461" y="264" type="line"/>
      <point x="461" y="390" type="line"/>
      <point x="36" y="390" type="line"/>
      <point x="36" y="356" type="line"/>
      <point x="429" y="356" type="line"/>
      <point x="429" y="264" type="line"/>
    </contour>
  </outline>
</glyph>
<glyph name="sfthyphen" format="1">
  <advance width="270"/>
  <unicode hex="00AD"/>
  <outline>
    <contour>
      <point x="231" y="324" type="line"/>
      <point x="231" y="355" type="line"/>
      <point x="39" y="355" type="line"/>
      <point x="39" y="324" type="line"/>
    </contour>
  </outline>
</glyph>
<glyph name="macron" format="1">
  <advance width="266"/>
  <unicode hex="00AF"/>
  <outline>
    <contour>
      <point x="219" y="891" type="line"/>
      <point x="219" y="925" type="line"/>
      <point x="47" y="925" type="line"/>
      <point x="47" y="891" type="line"/>
    </contour>
  </outline>
</glyph>
<glyph name="plusminus" format="1">
  <advance width="399"/>
  <unicode hex="00B1"/>
  <outline>
    <contour>
      <point x="367" y="324" type="line"/>
      <point x="367" y="355" type="line"/>
      <point x="219" y="355" type="line"/>
      <point x="219" y="502" type="line"/>
      <point x="187" y="502" type="line"/>
      <point x="187" y="355" type="line"/>
      <point x="39" y="355" type="line"/>
      <point x="39" y="324" type="line"/>
      <point x="187" y="324" type="line"/>
      <point x="187" y="175" type="line"/>
      <point x="219" y="175" type="line"/>
      <point x="219" y="324" type="line"/>
    </contour>
    <contour>
      <point x="367" y="100" type="line"/>
      <point x="367" y="131" type="line"/>
      <point x="39" y="131" type="line"/>
      <point x="39" y="100" type="line"/>
    </contour>
  </outline>
</glyph>
<glyph name="threesuperior" format="1">
  <advance width="229"/>
  <unicode hex="00B3"/>
  <outline>
    <contour>
      <point x="209" y="387" type="qcurve" smooth="yes"/>
      <point x="209" y="537" type="line" smooth="yes"/>
      <point x="209" y="583"/>
      <point x="181" y="596" type="qcurve"/>
      <point x="209" y="611"/>
      <point x="209" y="655" type="qcurve" smooth="yes"/>
      <point x="209" y="732" type="line" smooth="yes"/>
      <point x="209" y="810"/>
      <point x="142" y="810" type="qcurve" smooth="yes"/>
      <point x="76" y="810"/>
      <point x="76" y="732" type="qcurve" smooth="yes"/>
      <point x="76" y="695" type="line"/>
      <point x="105" y="695" type="line"/>
      <point x="105" y="735" type="line" smooth="yes"/>
      <point x="105" y="762"/>
      <point x="111" y="772" type="qcurve" smooth="yes"/>
      <point x="120" y="786"/>
      <point x="142" y="786" type="qcurve" smooth="yes"/>
      <point x="163" y="786"/>
      <point x="174" y="772" type="qcurve"/>
      <point x="178" y="756" type="line" smooth="yes"/>
      <point x="180" y="744"/>
      <point x="180" y="735" type="qcurve" smooth="yes"/>
      <point x="180" y="657" type="line" smooth="yes"/>
      <point x="180" y="645"/>
      <point x="178" y="633" type="qcurve" smooth="yes"/>
      <point x="177" y="629"/>
      <point x="174" y="619" type="qcurve"/>
      <point x="164" y="607"/>
      <point x="136" y="607" type="qcurve" smooth="yes"/>
      <point x="112" y="607" type="line"/>
      <point x="112" y="584" type="line"/>
      <point x="136" y="584" type="line" smooth="yes"/>
      <point x="166" y="584"/>
      <point x="172" y="574" type="qcurve"/>
      <point x="180" y="566"/>
      <point x="180" y="536" type="qcurve" smooth="yes"/>
      <point x="180" y="386" type="line" smooth="yes"/>
      <point x="180" y="335"/>
      <point x="142" y="335" type="qcurve" smooth="yes"/>
      <point x="120" y="335"/>
      <point x="111" y="349" type="qcurve" smooth="yes"/>
      <point x="105" y="360"/>
      <point x="105" y="386" type="qcurve" smooth="yes"/>
      <point x="105" y="429" type="line"/>
      <point x="76" y="429" type="line"/>
      <point x="76" y="387" type="line" smooth="yes"/>
      <point x="76" y="310"/>
      <point x="142" y="310" type="qcurve" smooth="yes"/>
      <point x="209" y="310"/>
    </contour>
  </outline>
</glyph>
<glyph name="ordmasculine" format="1">
  <advance width="187"/>
  <unicode hex="00BA"/>
  <outline>
    <contour>
      <point x="166" y="549" type="qcurve" smooth="yes"/>
      <point x="166" y="736" type="line" smooth="yes"/>
      <point x="166" y="812"/>
      <point x="94" y="812" type="qcurve" smooth="yes"/>
      <point x="21" y="812"/>
      <point x="21" y="736" type="qcurve" smooth="yes"/>
      <point x="21" y="549" type="line" smooth="yes"/>
      <point x="21" y="471"/>
      <point x="94" y="471" type="qcurve" smooth="yes"/>
      <point x="166" y="471"/>
    </contour>
    <contour>
      <point x="135" y="547" type="line" smooth="yes"/>
      <point x="135" y="495"/>
      <point x="94" y="495" type="qcurve" smooth="yes"/>
      <point x="52" y="495"/>
      <point x="52" y="547" type="qcurve" smooth="yes"/>
      <point x="52" y="736" type="line" smooth="yes"/>
      <point x="52" y="789"/>
      <point x="94" y="789" type="qcurve" smooth="yes"/>
      <point x="135" y="789"/>
      <point x="135" y="736" type="qcurve" smooth="yes"/>
    </contour>
  </outline>
</glyph>
<glyph name="guillemotright" format="1">
  <advance width="482"/>
  <unicode hex="00BB"/>
  <outline>
    <contour>
      <point x="285" y="322" type="line"/>
      <point x="285" y="345" type="line"/>
      <point x="56" y="526" type="line"/>
      <point x="56" y="487" type="line"/>
      <point x="242" y="334" type="line"/>
      <point x="56" y="179" type="line"/>
      <point x="56" y="141" type="line"/>
    </contour>
    <contour>
      <point x="432" y="322" type="line"/>
      <point x="432" y="345" type="line"/>
      <point x="205" y="526" type="line"/>
      <point x="205" y="487" type="line"/>
      <point x="390" y="334" type="line"/>
      <point x="205" y="179" type="line"/>
      <point x="205" y="141" type="line"/>
    </contour>
  </outline>
</glyph>
<glyph name="onequarter" format="1">
  <advance width="291"/>
  <unicode hex="00BC"/>
  <outline>
    <contour>
      <point x="416" y="270" type="line"/>
      <point x="416" y="292" type="line"/>
      <point x="386" y="292" type="line"/>
      <point x="386" y="490" type="line"/>
      <point x="357" y="490" type="line"/>
      <point x="244" y="270" type="line"/>
      <point x="357" y="270" type="line"/>
      <point x="357" y="0" type="line"/>
      <point x="386" y="0" type="line"/>
      <point x="386" y="270" type="line"/>
    </contour>
    <contour>
      <point x="287" y="811" type="line"/>
      <point x="254" y="811" type="line"/>
      <point x="6" y="0" type="line"/>
      <point x="39" y="0" type="line"/>
    </contour>
    <contour>
      <point x="4" y="321" type="line"/>
      <point x="4" y="349" type="line"/>
      <point x="-13" y="349" type="line"/>
      <point x="-13" y="814" type="line"/>
      <point x="-63" y="794" type="line"/>
      <point x="-63" y="766" type="line"/>
      <point x="-41" y="775" type="line"/>
      <point x="-41" y="349" type="line"/>
      <point x="-56" y="349" type="line"/>
      <point x="-56" y="321" type="line"/>
    </contour>
    <contour>
      <point x="357" y="292" type="line"/>
      <point x="290" y="292" type="line"/>
      <point x="357" y="426" type="line"/>
    </contour>
  </outline>
</glyph>
<glyph name="onehalf" format="1">
  <advance width="291"/>
  <unicode hex="00BD"/>
  <outline>
    <contour>
      <point x="287" y="811" type="line"/>
      <point x="254" y="811" type="line"/>
      <point x="6" y="0" type="line"/>
      <point x="39" y="0" type="line"/>
    </contour>
    <contour>
      <point x="410" y="0" type="line"/>
      <point x="410" y="25" type="line"/>
      <point x="306" y="25" type="line"/>
      <point x="306" y="217" type="line" smooth="yes"/>
      <point x="306" y="241"/>
      <point x="312" y="247" type="qcurve" smooth="yes"/>
      <point x="319" y="254"/>
      <point x="352" y="260" type="qcurve" smooth="yes"/>
      <point x="386" y="266"/>
      <point x="397" y="275" type="qcurve"/>
      <point x="410" y="288"/>
      <point x="410" y="326" type="qcurve" smooth="yes"/>
      <point x="410" y="417" type="line" smooth="yes"/>
      <point x="410" y="495"/>
      <point x="344" y="495" type="qcurve" smooth="yes"/>
      <point x="279" y="495"/>
      <point x="279" y="417" type="qcurve" smooth="yes"/>
      <point x="279" y="379" type="line"/>
      <point x="306" y="379" type="line"/>
      <point x="306" y="419" type="line" smooth="yes"/>
      <point x="306" y="428"/>
      <point x="308" y="442" type="qcurve" smooth="yes"/>
      <point x="308" y="445"/>
      <point x="310" y="450"/>
      <point x="312" y="456"/>
      <point x="312" y="457" type="qcurve" smooth="yes"/>
      <point x="323" y="471"/>
      <point x="344" y="471" type="qcurve" smooth="yes"/>
      <point x="366" y="471"/>
      <point x="375" y="457" type="qcurve" smooth="yes"/>
      <point x="382" y="447"/>
      <point x="382" y="419" type="qcurve" smooth="yes"/>
      <point x="382" y="329" type="line" smooth="yes"/>
      <point x="382" y="311"/>
      <point x="380" y="306" type="qcurve"/>
      <point x="380" y="297"/>
      <point x="374" y="294" type="qcurve"/>
      <point x="371" y="288"/>
      <point x="360" y="288" type="qcurve"/>
      <point x="353" y="286"/>
      <point x="336" y="284" type="qcurve" smooth="yes"/>
      <point x="279" y="278"/>
      <point x="279" y="217" type="qcurve" smooth="yes"/>
      <point x="279" y="0" type="line"/>
    </contour>
    <contour>
      <point x="4" y="321" type="line"/>
      <point x="4" y="349" type="line"/>
      <point x="-13" y="349" type="line"/>
      <point x="-13" y="814" type="line"/>
      <point x="-63" y="794" type="line"/>
      <point x="-63" y="766" type="line"/>
      <point x="-41" y="775" type="line"/>
      <point x="-41" y="349" type="line"/>
      <point x="-56" y="349" type="line"/>
      <point x="-56" y="321" type="line"/>
    </contour>
  </outline>
</glyph>
<glyph name="Agrave" format="1">
  <advance width="280"/>
  <unicode hex="00C0"/>
  <outline>
    <contour>
      <point x="270" y="0" type="line"/>
      <point x="154" y="804" type="line"/>
      <point x="126" y="804" type="line"/>
      <point x="10" y="0" type="line"/>
      <point x="40" y="0" type="line"/>
      <point x="95" y="379" type="line"/>
      <point x="184" y="379" type="line"/>
      <point x="237" y="0" type="line"/>
    </contour>
    <contour>
      <point x="180" y="410" type="line"/>
      <point x="99" y="410" type="line"/>
      <point x="140" y="695" type="line"/>
    </contour>
    <contour>
      <point x="189" y="865" type="line"/>
      <point x="126" y="987" type="line"/>
      <point x="91" y="971" type="line"/>
      <point x="154" y="847" type="line"/>
    </contour>
  </outline>
</glyph>
<glyph name="Eacute" format="1">
  <advance width="290"/>
  <unicode hex="00C9"/>
  <outline>
    <contour>
      <point x="259" y="0" type="line"/>
      <point x="259" y="26" type="line"/>
      <point x="89" y="26" type="line"/>
      <point x="89" y="451" type="line"/>
      <point x="259" y="451" type="line"/>
      <point x="259" y="476" type="line"/>
      <point x="89" y="476" type="line"/>
      <point x="89" y="777" type="line"/>
      <point x="259" y="777" type="line"/>
      <point x="259" y="804" type="line"/>
      <point x="55" y="804" type="line"/>
      <point x="55" y="0" type="line"/>
    </contour>
    <contour>
      <point x="194" y="971" type="line"/>
      <point x="159" y="987" type="line"/>
      <point x="96" y="865" type="line"/>
      <point x="131" y="847" type="line"/>
    </contour>
  </outline>
</glyph>
<glyph name="Igrave" format="1">
  <advance width="127"/>
  <unicode hex="00CC"/>
  <outline>
    <contour>
      <point x="102" y="1" type="line"/>
      <point x="102" y="32" type="line"/>
      <point x="80" y="32" type="line"/>
      <point x="80" y="771" type="line"/>
      <point x="102" y="771" type="line"/>
      <point x="102" y="802" type="line"/>
      <point x="80" y="802" type="line"/>
      <point x="80" y="804" type="line"/>
      <point x="47" y="804" type="line"/>
      <point x="47" y="802" type="line"/>
      <point x="26" y="802" type="line"/>
      <point x="26" y="771" type="line"/>
      <point x="47" y="771" type="line"/>
      <point x="47" y="32" type="line"/>
      <point x="26" y="32" type="line"/>
      <point x="26" y="1" type="line"/>
      <point x="47" y="1" type="line"/>
      <point x="47" y="0" type="line"/>
      <point x="80" y="0" type="line"/>
      <point x="80" y="1" type="line"/>
    </contour>
    <contour>
      <point x="112" y="865" type="line"/>
      <point x="49" y="987" type="line"/>
      <point x="15" y="971" type="line"/>
      <point x="79" y="847" type="line"/>
    </contour>
  </outline>
</glyph>
<glyph name="Eth" format="1">
  <advance width="285"/>
  <unicode hex="00D0"/>
  <outline>
    <contour>
      <point x="246" y="111" type="qcurve" smooth="yes"/>
      <point x="246" y="679" type="line" smooth="yes"/>
      <point x="246" y="749"/>
      <point x="227" y="771" type="qcurve"/>
      <point x="217" y="787"/>
      <point x="194" y="796" type="qcurve" smooth="yes"/>
      <point x="172" y="804"/>
      <point x="140" y="804" type="qcurve" smooth="yes"/>
      <point x="39" y="804" type="line"/>
      <point x="39" y="525" type="line"/>
      <point x="0" y="525" type="line"/>
      <point x="0" y="494" type="line"/>
      <point x="39" y="494" type="line"/>
      <point x="39" y="0" type="line"/>
      <point x="140" y="0" type="line" smooth="yes"/>
      <point x="246" y="0"/>
    </contour>
    <contour>
      <point x="212" y="114" type="line" smooth="yes"/>
      <point x="212" y="63"/>
      <point x="199" y="46" type="qcurve"/>
      <point x="182" y="26"/>
      <point x="132" y="26" type="qcurve" smooth="yes"/>
      <point x="72" y="26" type="line"/>
      <point x="72" y="494" type="line"/>
      <point x="175" y="494" type="line"/>
      <point x="175" y="525" type="line"/>
      <point x="72" y="525" type="line"/>
      <point x="72" y="776" type="line"/>
      <point x="132" y="776" type="line" smooth="yes"/>
      <point x="181" y="776"/>
      <point x="197" y="757" type="qcurve" smooth="yes"/>
      <point x="212" y="740"/>
      <point x="212" y="690" type="qcurve" smooth="yes"/>
    </contour>
  </outline>
</glyph>
<glyph name="Ntilde" format="1">
  <advance width="287"/>
  <unicode hex="00D1"/>
  <outline>
    <contour>
      <point x="260" y="0" type="line"/>
      <point x="255" y="804" type="line"/>
      <point x="222" y="804" type="line"/>
      <point x="222" y="165" type="line"/>
      <point x="77" y="802" type="line"/>
      <point x="75" y="802" type="line"/>
      <point x="75" y="804" type="line"/>
      <point x="41" y="804" type="line"/>
      <point x="41" y="0" type="line"/>
      <point x="75" y="0" type="line"/>
      <point x="75" y="666" type="line"/>
      <point x="222" y="17" type="line"/>
      <point x="222" y="0" type="line"/>
    </contour>
    <contour>
      <point x="267" y="949" type="line"/>
      <point x="215" y="894"/>
      <point x="191" y="896" type="qcurve" smooth="yes"/>
      <point x="179" y="897"/>
      <point x="146" y="924" type="qcurve" smooth="yes"/>
      <point x="115" y="949"/>
      <point x="99" y="951" type="qcurve" smooth="yes"/>
      <point x="85" y="952"/>
      <point x="64" y="942" type="qcurve"/>
      <point x="44" y="930"/>
      <point x="24" y="907" type="qcurve"/>
      <point x="19" y="865" type="line"/>
      <point x="73" y="921"/>
      <point x="96" y="919" type="qcurve"/>
      <point x="108" y="916"/>
      <point x="134" y="896" type="qcurve"/>
      <point x="139" y="891" type="line"/>
      <point x="154" y="880"/>
      <point x="167" y="872" type="qcurve" smooth="yes"/>
      <point x="176" y="866"/>
      <point x="187" y="864" type="qcurve" smooth="yes"/>
      <point x="220" y="861"/>
      <point x="264" y="906" type="qcurve"/>
    </contour>
  </outline>
</glyph>
<glyph name="Oslash" format="1">
  <advance width="285"/>
  <unicode hex="00D8"/>
  <outline>
    <contour>
      <point x="266" y="811" type="line"/>
      <point x="232" y="811" type="line"/>
      <point x="224" y="777" type="line"/>
      <point x="197" y="811"/>
      <point x="142" y="811" type="qcurve" smooth="yes"/>
      <point x="39" y="811"/>
      <point x="39" y="690" type="qcurve" smooth="yes"/>
      <point x="39" y="114" type="line" smooth="yes"/>
      <point x="39" y="105"/>
      <point x="40" y="100" type="qcurve"/>
      <point x="40" y="92"/>
      <point x="41" y="87" type="qcurve"/>
      <point x="17" y="0" type="line"/>
      <point x="51" y="0" type="line"/>
      <point x="59" y="31" type="line"/>
      <point x="83" y="-8"/>
      <point x="142" y="-8" type="qcurve" smooth="yes"/>
      <point x="246" y="-8"/>
      <point x="246" y="114" type="qcurve" smooth="yes"/>
      <point x="246" y="690" type="line"/>
      <point x="246" y="710" type="line" smooth="yes"/>
      <point x="246" y="713"/>
      <point x="245" y="724"/>
      <point x="244" y="727" type="qcurve"/>
    </contour>
    <contour>
      <point x="212" y="112" type="line" smooth="yes"/>
      <point x="212" y="17"/>
      <point x="142" y="17" type="qcurve" smooth="yes"/>
      <point x="78" y="17"/>
      <point x="74" y="86" type="qcurve"/>
      <point x="212" y="610" type="line"/>
    </contour>
    <contour>
      <point x="210" y="726" type="qcurve"/>
      <point x="72" y="209" type="line"/>
      <point x="72" y="692" type="line" smooth="yes"/>
      <point x="72" y="785"/>
      <point x="142" y="785" type="qcurve" smooth="yes"/>
      <point x="201" y="785"/>
    </contour>
  </outline>
</glyph>
<glyph name="Thorn" format="1">
  <advance width="284"/>
  <unicode hex="00DE"/>
  <outline>
    <contour>
      <point x="254" y="355" type="qcurve" smooth="yes"/>
      <point x="254" y="470" type="line" smooth="yes"/>
      <point x="254" y="540"/>
      <point x="235" y="565" type="qcurve"/>
      <point x="214" y="596"/>
      <point x="147" y="596" type="qcurve" smooth="yes"/>
      <point x="75" y="596" type="line"/>
      <point x="75" y="804" type="line"/>
      <point x="41" y="804" type="line"/>
      <point x="41" y="0" type="line"/>
      <point x="75" y="0" type="line"/>
      <point x="75" y="245" type="line"/>
      <point x="147" y="245" type="line" smooth="yes"/>
      <point x="254" y="245"/>
    </contour>
    <contour>
      <point x="221" y="357" type="line" smooth="yes"/>
      <point x="221" y="306"/>
      <point x="206" y="290" type="qcurve"/>
      <point x="189" y="270"/>
      <point x="140" y="270" type="qcurve" smooth="yes"/>
      <point x="75" y="270" type="line"/>
      <point x="75" y="569" type="line"/>
      <point x="140" y="569" type="line" smooth="yes"/>
      <point x="190" y="569"/>
      <point x="206" y="550" type="qcurve"/>
      <point x="221" y="534"/>
      <point x="221" y="482" type="qcurve" smooth="yes"/>
    </contour>
  </outline>
</glyph>
<glyph name="germandbls" format="1">
  <advance width="326"/>
  <unicode hex="00DF"/>
  <outline>
    <contour>
      <point x="296" y="49" type="qcurve" smooth="yes"/>
      <point x="296" y="365" type="line" smooth="yes"/>
      <point x="296" y="373"/>
      <point x="294" y="393" type="qcurve" smooth="yes"/>
      <point x="293" y="398"/>
      <point x="286" y="426" type="qcurve" smooth="yes"/>
      <point x="276" y="466"/>
      <point x="221" y="474" type="qcurve"/>
      <point x="246" y="493"/>
      <point x="246" y="559" type="qcurve" smooth="yes"/>
      <point x="246" y="690" type="line" smooth="yes"/>
      <point x="246" y="811"/>
      <point x="142" y="811" type="qcurve" smooth="yes"/>
      <point x="39" y="811"/>
      <point x="39" y="690" type="qcurve" smooth="yes"/>
      <point x="39" y="4" type="line"/>
      <point x="72" y="4" type="line"/>
      <point x="72" y="692" type="line" smooth="yes"/>
      <point x="72" y="785"/>
      <point x="212" y="785"/>
      <point x="212" y="692" type="qcurve" smooth="yes"/>
      <point x="212" y="562" type="line" smooth="yes"/>
      <point x="212" y="511"/>
      <point x="199" y="494" type="qcurve"/>
      <point x="181" y="475"/>
      <point x="149" y="475" type="qcurve" smooth="yes"/>
      <point x="136" y="475" type="line"/>
      <point x="136" y="449" type="line"/>
      <point x="181" y="449" type="line" smooth="yes"/>
      <point x="230" y="449"/>
      <point x="247" y="429" type="qcurve"/>
      <point x="261" y="409"/>
      <point x="261" y="361" type="qcurve" smooth="yes"/>
      <point x="261" y="46" type="line" smooth="yes"/>
      <point x="261" y="-42"/>
      <point x="191" y="-48" type="qcurve"/>
      <point x="191" y="-74" type="line"/>
      <point x="296" y="-74"/>
    </contour>
  </outline>
</glyph>
<glyph name="aacute" format="1">
  <advance width="285"/>
  <unicode hex="00E1"/>
  <outline>
    <contour>
      <point x="246" y="114" type="line"/>
      <point x="246" y="449" type="line" smooth="yes"/>
      <point x="246" y="571"/>
      <point x="142" y="571" type="qcurve" smooth="yes"/>
      <point x="39" y="571"/>
      <point x="39" y="449" type="qcurve" smooth="yes"/>
      <point x="39" y="420" type="line"/>
      <point x="72" y="420" type="line"/>
      <point x="72" y="451" type="line" smooth="yes"/>
      <point x="72" y="545"/>
      <point x="212" y="545"/>
      <point x="212" y="451" type="qcurve" smooth="yes"/>
      <point x="212" y="337" type="line"/>
      <point x="189" y="357"/>
      <point x="142" y="357" type="qcurve" smooth="yes"/>
      <point x="39" y="357"/>
      <point x="39" y="236" type="qcurve" smooth="yes"/>
      <point x="39" y="114" type="line" smooth="yes"/>
      <point x="39" y="-8"/>
      <point x="142" y="-8" type="qcurve" smooth="yes"/>
      <point x="186" y="-8"/>
      <point x="211" y="11" type="qcurve"/>
      <point x="211" y="-4" type="line"/>
      <point x="244" y="-4" type="line"/>
      <point x="244" y="81" type="line" smooth="yes"/>
      <point x="244" y="83"/>
      <point x="246" y="94"/>
      <point x="246" y="97" type="qcurve" smooth="yes"/>
    </contour>
    <contour>
      <point x="211" y="85" type="line"/>
      <point x="203" y="17"/>
      <point x="142" y="17" type="qcurve" smooth="yes"/>
      <point x="100" y="17"/>
      <point x="84" y="45" type="qcurve" smooth="yes"/>
      <point x="72" y="66"/>
      <point x="72" y="112" type="qcurve" smooth="yes"/>
      <point x="72" y="239" type="line" smooth="yes"/>
      <point x="72" y="331"/>
      <point x="142" y="331" type="qcurve" smooth="yes"/>
      <point x="203" y="331"/>
      <point x="211" y="266" type="qcurve"/>
    </contour>
    <contour>
      <point x="191" y="767" type="line"/>
      <point x="156" y="785" type="line"/>
      <point x="94" y="662" type="line"/>
      <point x="129" y="645" type="line"/>
    </contour>
  </outline>
</glyph>
<glyph name="acircumflex" format="1">
  <advance width="285"/>
  <unicode hex="00E2"/>
  <outline>
    <contour>
      <point x="246" y="114" type="line"/>
      <point x="246" y="449" type="line" smooth="yes"/>
      <point x="246" y="571"/>
      <point x="142" y="571" type="qcurve" smooth="yes"/>
      <point x="39" y="571"/>
      <point x="39" y="449" type="qcurve" smooth="yes"/>
      <point x="39" y="420" type="line"/>
      <point x="72" y="420" type="line"/>
      <point x="72" y="451" type="line" smooth="yes"/>
      <point x="72" y="545"/>
      <point x="212" y="545"/>
      <point x="212" y="451" type="qcurve" smooth="yes"/>
      <point x="212" y="337" type="line"/>
      <point x="189" y="357"/>
      <point x="142" y="357" type="qcurve" smooth="yes"/>
      <point x="39" y="357"/>
      <point x="39" y="236" type="qcurve" smooth="yes"/>
      <point x="39" y="114" type="line" smooth="yes"/>
      <point x="39" y="-8"/>
      <point x="142" y="-8" type="qcurve" smooth="yes"/>
      <point x="186" y="-8"/>
      <point x="211" y="11" type="qcurve"/>
      <point x="211" y="-4" type="line"/>
      <point x="244" y="-4" type="line"/>
      <point x="244" y="81" type="line" smooth="yes"/>
      <point x="244" y="83"/>
      <point x="246" y="94"/>
      <point x="246" y="97" type="qcurve" smooth="yes"/>
    </contour>
    <contour>
      <point x="211" y="85" type="line"/>
      <point x="203" y="17"/>
      <point x="142" y="17" type="qcurve" smooth="yes"/>
      <point x="100" y="17"/>
      <point x="84" y="45" type="qcurve" smooth="yes"/>
      <point x="72" y="66"/>
      <point x="72" y="112" type="qcurve" smooth="yes"/>
      <point x="72" y="239" type="line" smooth="yes"/>
      <point x="72" y="331"/>
      <point x="142" y="331" type="qcurve" smooth="yes"/>
      <point x="203" y="331"/>
      <point x="211" y="266" type="qcurve"/>
    </contour>
    <contour>
      <point x="207" y="641" type="line"/>
      <point x="161" y="796" type="line"/>
      <point x="124" y="796" type="line"/>
      <point x="79" y="641" type="line"/>
      <point x="111" y="641" type="line"/>
      <point x="142" y="737" type="line"/>
      <point x="175" y="642" type="line"/>
    </contour>
  </outline>
</glyph>
<glyph name="atilde" format="1">
  <advance width="285"/>
  <unicode hex="00E3"/>
  <outline>
    <contour>
      <point x="246" y="114" type="line"/>
      <point x="246" y="449" type="line" smooth="yes"/>
      <point x="246" y="571"/>
      <point x="142" y="571" type="qcurve" smooth="yes"/>
      <point x="39" y="571"/>
      <point x="39" y="449" type="qcurve" smooth="yes"/>
      <point x="39" y="420" type="line"/>
      <point x="72" y="420" type="line"/>
      <point x="72" y="451" type="line" smooth="yes"/>
      <point x="72" y="545"/>
      <point x="212" y="545"/>
      <point x="212" y="451" type="qcurve" smooth="yes"/>
      <point x="212" y="337" type="line"/>
      <point x="189" y="357"/>
      <point x="142" y="357" type="qcurve" smooth="yes"/>
      <point x="39" y="357"/>
      <point x="39" y="236" type="qcurve" smooth="yes"/>
      <point x="39" y="114" type="line" smooth="yes"/>
      <point x="39" y="-8"/>
      <point x="142" y="-8" type="qcurve" smooth="yes"/>
      <point x="186" y="-8"/>
      <point x="211" y="11" type="qcurve"/>
      <point x="211" y="-4" type="line"/>
      <point x="244" y="-4" type="line"/>
      <point x="244" y="81" type="line" smooth="yes"/>
      <point x="244" y="83"/>
      <point x="246" y="94"/>
      <point x="246" y="97" type="qcurve" smooth="yes"/>
    </contour>
    <contour>
      <point x="211" y="85" type="line"/>
      <point x="203" y="17"/>
      <point x="142" y="17" type="qcurve" smooth="yes"/>
      <point x="100" y="17"/>
      <point x="84" y="45" type="qcurve" smooth="yes"/>
      <point x="72" y="66"/>
      <point x="72" y="112" type="qcurve" smooth="yes"/>
      <point x="72" y="239" type="line" smooth="yes"/>
      <point x="72" y="331"/>
      <point x="142" y="331" type="qcurve" smooth="yes"/>
      <point x="203" y="331"/>
      <point x="211" y="266" type="qcurve"/>
    </contour>
    <contour>
      <point x="266" y="756" type="line"/>
      <point x="214" y="701"/>
      <point x="190" y="704" type="qcurve" smooth="yes"/>
      <point x="175" y="706"/>
      <point x="145" y="730" type="qcurve" smooth="yes"/>
      <point x="114" y="756"/>
      <point x="97" y="757" type="qcurve"/>
      <point x="66" y="762"/>
      <point x="22" y="715" type="qcurve"/>
      <point x="17" y="672" type="line"/>
      <point x="71" y="728"/>
      <point x="95" y="726" type="qcurve" smooth="yes"/>
      <point x="106" y="725"/>
      <point x="132" y="702" type="qcurve"/>
      <point x="139" y="697" type="line"/>
      <point x="169" y="673"/>
      <point x="187" y="671" type="qcurve" smooth="yes"/>
      <point x="222" y="668"/>
      <point x="262" y="714" type="qcurve"/>
    </contour>
  </outline>
</glyph>
<glyph name="aring" format="1">
  <advance width="285"/>
  <unicode hex="00E5"/>
  <outline>
    <contour>
      <point x="246" y="114" type="line"/>
      <point x="246" y="449" type="line" smooth="yes"/>
      <point x="246" y="571"/>
      <point x="142" y="571" type="qcurve" smooth="yes"/>
      <point x="39" y="571"/>
      <point x="39" y="449" type="qcurve" smooth="yes"/>
      <point x="39" y="420" type="line"/>
      <point x="72" y="420" type="line"/>
      <point x="72" y="451" type="line" smooth="yes"/>
      <point x="72" y="545"/>
      <point x="212" y="545"/>
      <point x="212" y="451" type="qcurve" smooth="yes"/>
      <point x="212" y="337" type="line"/>
      <point x="189" y="357"/>
      <point x="142" y="357" type="qcurve" smooth="yes"/>
      <point x="39" y="357"/>
      <point x="39" y="236" type="qcurve" smooth="yes"/>
      <point x="39" y="114" type="line" smooth="yes"/>
      <point x="39" y="-8"/>
      <point x="142" y="-8" type="qcurve" smooth="yes"/>
      <point x="186" y="-8"/>
      <point x="211" y="11" type="qcurve"/>
      <point x="211" y="-4" type="line"/>
      <point x="244" y="-4" type="line"/>
      <point x="244" y="81" type="line" smooth="yes"/>
      <point x="244" y="83"/>
      <point x="246" y="94"/>
      <point x="246" y="97" type="qcurve" smooth="yes"/>
    </contour>
    <contour>
      <point x="211" y="85" type="line"/>
      <point x="203" y="17"/>
      <point x="142" y="17" type="qcurve" smooth="yes"/>
      <point x="100" y="17"/>
      <point x="84" y="45" type="qcurve" smooth="yes"/>
      <point x="72" y="66"/>
      <point x="72" y="112" type="qcurve" smooth="yes"/>
      <point x="72" y="239" type="line" smooth="yes"/>
      <point x="72" y="331"/>
      <point x="142" y="331" type="qcurve" smooth="yes"/>
      <point x="203" y="331"/>
      <point x="211" y="266" type="qcurve"/>
    </contour>
    <contour>
      <point x="224" y="696" type="qcurve" smooth="yes"/>
      <point x="224" y="730"/>
      <point x="200" y="756" type="qcurve"/>
      <point x="174" y="780"/>
      <point x="106" y="780"/>
      <point x="80" y="756" type="qcurve"/>
      <point x="56" y="730"/>
      <point x="56" y="696" type="qcurve" smooth="yes"/>
      <point x="56" y="679"/>
      <point x="62" y="664" type="qcurve" smooth="yes"/>
      <point x="69" y="649"/>
      <point x="80" y="636" type="qcurve"/>
      <point x="90" y="626"/>
      <point x="106" y="618" type="qcurve"/>
      <point x="121" y="612"/>
      <point x="139" y="612" type="qcurve" smooth="yes"/>
      <point x="174" y="612"/>
      <point x="199" y="636" type="qcurve" smooth="yes"/>
      <point x="224" y="661"/>
    </contour>
    <contour>
      <point x="192" y="674"/>
      <point x="178" y="658" type="qcurve" smooth="yes"/>
      <point x="163" y="642"/>
      <point x="117" y="642"/>
      <point x="102" y="658" type="qcurve" smooth="yes"/>
      <point x="87" y="673"/>
      <point x="87" y="719"/>
      <point x="102" y="734" type="qcurve" smooth="yes"/>
      <point x="117" y="750"/>
      <point x="163" y="750"/>
      <point x="178" y="734" type="qcurve" smooth="yes"/>
      <point x="192" y="718"/>
    </contour>
  </outline>
</glyph>
<glyph name="ae" format="1">
  <advance width="462"/>
  <unicode hex="00E6"/>
  <outline>
    <contour>
      <point x="421" y="114" type="qcurve" smooth="yes"/>
      <point x="421" y="131" type="line"/>
      <point x="387" y="131" type="line"/>
      <point x="387" y="112" type="line" smooth="yes"/>
      <point x="387" y="17"/>
      <point x="247" y="17"/>
      <point x="247" y="112" type="qcurve" smooth="yes"/>
      <point x="247" y="301" type="line"/>
      <point x="421" y="301" type="line"/>
      <point x="421" y="449" type="line" smooth="yes"/>
      <point x="421" y="571"/>
      <point x="317" y="571" type="qcurve" smooth="yes"/>
      <point x="254" y="571"/>
      <point x="230" y="526" type="qcurve"/>
      <point x="206" y="571"/>
      <point x="142" y="571" type="qcurve" smooth="yes"/>
      <point x="39" y="571"/>
      <point x="39" y="449" type="qcurve" smooth="yes"/>
      <point x="39" y="420" type="line"/>
      <point x="72" y="420" type="line"/>
      <point x="72" y="451" type="line" smooth="yes"/>
      <point x="72" y="545"/>
      <point x="212" y="545"/>
      <point x="212" y="451" type="qcurve" smooth="yes"/>
      <point x="212" y="337" type="line"/>
      <point x="189" y="357"/>
      <point x="142" y="357" type="qcurve" smooth="yes"/>
      <point x="39" y="357"/>
      <point x="39" y="236" type="qcurve" smooth="yes"/>
      <point x="39" y="114" type="line" smooth="yes"/>
      <point x="39" y="-8"/>
      <point x="142" y="-8" type="qcurve" smooth="yes"/>
      <point x="186" y="-8"/>
      <point x="211" y="11" type="qcurve"/>
      <point x="211" y="-4" type="line"/>
      <point x="244" y="-4" type="line"/>
      <point x="244" y="17" type="line"/>
      <point x="270" y="-8"/>
      <point x="317" y="-8" type="qcurve" smooth="yes"/>
      <point x="421" y="-8"/>
    </contour>
    <contour>
      <point x="211" y="85" type="line"/>
      <point x="203" y="17"/>
      <point x="142" y="17" type="qcurve" smooth="yes"/>
      <point x="100" y="17"/>
      <point x="84" y="45" type="qcurve" smooth="yes"/>
      <point x="72" y="66"/>
      <point x="72" y="112" type="qcurve" smooth="yes"/>
      <point x="72" y="239" type="line" smooth="yes"/>
      <point x="72" y="331"/>
      <point x="142" y="331" type="qcurve" smooth="yes"/>
      <point x="203" y="331"/>
      <point x="211" y="266" type="qcurve"/>
    </contour>
    <contour>
      <point x="387" y="332" type="line"/>
      <point x="247" y="332" type="line"/>
      <point x="247" y="451" type="line" smooth="yes"/>
      <point x="247" y="545"/>
      <point x="387" y="545"/>
      <point x="387" y="451" type="qcurve" smooth="yes"/>
    </contour>
  </outline>
</glyph>
<glyph name="ccedilla" format="1">
  <advance width="275"/>
  <unicode hex="00E7"/>
  <outline>
    <contour>
      <point x="246" y="114" type="qcurve" smooth="yes"/>
      <point x="246" y="176" type="line"/>
      <point x="212" y="176" type="line"/>
      <point x="212" y="112" type="line" smooth="yes"/>
      <point x="212" y="17"/>
      <point x="72" y="17"/>
      <point x="72" y="112" type="qcurve" smooth="yes"/>
      <point x="72" y="451" type="line" smooth="yes"/>
      <point x="72" y="545"/>
      <point x="212" y="545"/>
      <point x="212" y="451" type="qcurve" smooth="yes"/>
      <point x="212" y="392" type="line"/>
      <point x="246" y="392" type="line"/>
      <point x="246" y="449" type="line" smooth="yes"/>
      <point x="246" y="571"/>
      <point x="142" y="571" type="qcurve" smooth="yes"/>
      <point x="39" y="571"/>
      <point x="39" y="449" type="qcurve" smooth="yes"/>
      <point x="39" y="114" type="line" smooth="yes"/>
      <point x="39" y="-2"/>
      <point x="134" y="-8" type="qcurve"/>
      <point x="134" y="-81" type="line"/>
      <point x="141" y="-81" type="line"/>
      <point x="147" y="-79"/>
      <point x="152" y="-81" type="qcurve"/>
      <point x="175" y="-81"/>
      <point x="175" y="-106" type="qcurve" smooth="yes"/>
      <point x="175" y="-144" type="line" smooth="yes"/>
      <point x="175" y="-175"/>
      <point x="149" y="-175" type="qcurve"/>
      <point x="149" y="-174" type="line"/>
      <point x="105" y="-174" type="line"/>
      <point x="105" y="-195" type="line"/>
      <point x="149" y="-195" type="line" smooth="yes"/>
      <point x="201" y="-195"/>
      <point x="201" y="-144" type="qcurve" smooth="yes"/>
      <point x="201" y="-101" type="line" smooth="yes"/>
      <point x="201" y="-61"/>
      <point x="166" y="-61" type="qcurve" smooth="yes"/>
      <point x="156" y="-61" type="line"/>
      <point x="156" y="-8" type="line"/>
      <point x="246" y="3"/>
    </contour>
  </outline>
</glyph>
<glyph name="iacute" format="1">
  <advance width="116"/>
  <unicode hex="00ED"/>
  <outline>
    <contour>
      <point x="75" y="0" type="line"/>
      <point x="75" y="574" type="line"/>
      <point x="41" y="574" type="line"/>
      <point x="41" y="0" type="line"/>
    </contour>
    <contour>
      <point x="106" y="767" type="line"/>
      <point x="72" y="785" type="line"/>
      <point x="10" y="662" type="line"/>
      <point x="44" y="645" type="line"/>
    </contour>
  </outline>
</glyph>
<glyph name="icircumflex" format="1">
  <advance width="116"/>
  <unicode hex="00EE"/>
  <outline>
    <contour>
      <point x="75" y="0" type="line"/>
      <point x="75" y="574" type="line"/>
      <point x="41" y="574" type="line"/>
      <point x="41" y="0" type="line"/>
    </contour>
    <contour>
      <point x="122" y="641" type="line"/>
      <point x="77" y="796" type="line"/>
      <point x="39" y="796" type="line"/>
      <point x="-6" y="641" type="line"/>
      <point x="26" y="641" type="line"/>
      <point x="57" y="737" type="line"/>
      <point x="90" y="642" type="line"/>
    </contour>
  </outline>
</glyph>
<glyph name="idieresis" format="1">
  <advance width="116"/>
  <unicode hex="00EF"/>
  <outline>
    <contour>
      <point x="75" y="0" type="line"/>
      <point x="75" y="574" type="line"/>
      <point x="41" y="574" type="line"/>
      <point x="41" y="0" type="line"/>
    </contour>
    <contour>
      <point x="124" y="676" type="line"/>
      <point x="124" y="714" type="line"/>
      <point x="91" y="714" type="line"/>
      <point x="91" y="676" type="line"/>
    </contour>
    <contour>
      <point x="25" y="676" type="line"/>
      <point x="25" y="714" type="line"/>
      <point x="-8" y="714" type="line"/>
      <point x="-8" y="676" type="line"/>
    </contour>
  </outline>
</glyph>
<glyph name="ntilde" format="1">
  <advance width="285"/>
  <unicode hex="00F1"/>
  <outline>
    <contour>
      <point x="246" y="-8" type="line"/>
      <point x="246" y="452" type="line" smooth="yes"/>
      <point x="246" y="574"/>
      <point x="142" y="574" type="qcurve" smooth="yes"/>
      <point x="96" y="574"/>
      <point x="70" y="551" type="qcurve"/>
      <point x="70" y="574" type="line"/>
      <point x="36" y="574" type="line"/>
      <point x="36" y="-8" type="line"/>
      <point x="72" y="-8" type="line"/>
      <point x="72" y="454" type="line" smooth="yes"/>
      <point x="72" y="549"/>
      <point x="212" y="549"/>
      <point x="212" y="454" type="qcurve" smooth="yes"/>
      <point x="212" y="-8" type="line"/>
    </contour>
    <contour>
      <point x="266" y="756" type="line"/>
      <point x="214" y="701"/>
      <point x="190" y="704" type="qcurve" smooth="yes"/>
      <point x="175" y="706"/>
      <point x="145" y="730" type="qcurve" smooth="yes"/>
      <point x="114" y="756"/>
      <point x="97" y="757" type="qcurve"/>
      <point x="66" y="762"/>
      <point x="22" y="715" type="qcurve"/>
      <point x="17" y="672" type="line"/>
      <point x="71" y="728"/>
      <point x="95" y="726" type="qcurve" smooth="yes"/>
      <point x="106" y="725"/>
      <point x="132" y="702" type="qcurve"/>
      <point x="139" y="697" type="line"/>
      <point x="169" y="673"/>
      <point x="187" y="671" type="qcurve" smooth="yes"/>
      <point x="222" y="668"/>
      <point x="262" y="714" type="qcurve"/>
    </contour>
  </outline>
</glyph>
<glyph name="oacute" format="1">
  <advance width="285"/>
  <unicode hex="00F3"/>
  <outline>
    <contour>
      <point x="246" y="114" type="qcurve" smooth="yes"/>
      <point x="246" y="449" type="line" smooth="yes"/>
      <point x="246" y="571"/>
      <point x="142" y="571" type="qcurve" smooth="yes"/>
      <point x="39" y="571"/>
      <point x="39" y="449" type="qcurve" smooth="yes"/>
      <point x="39" y="114" type="line" smooth="yes"/>
      <point x="39" y="-8"/>
      <point x="142" y="-8" type="qcurve" smooth="yes"/>
      <point x="246" y="-8"/>
    </contour>
    <contour>
      <point x="212" y="112" type="line" smooth="yes"/>
      <point x="212" y="17"/>
      <point x="72" y="17"/>
      <point x="72" y="112" type="qcurve" smooth="yes"/>
      <point x="72" y="451" type="line" smooth="yes"/>
      <point x="72" y="545"/>
      <point x="212" y="545"/>
      <point x="212" y="451" type="qcurve" smooth="yes"/>
    </contour>
    <contour>
      <point x="191" y="767" type="line"/>
      <point x="156" y="785" type="line"/>
      <point x="94" y="662" type="line"/>
      <point x="129" y="645" type="line"/>
    </contour>
  </outline>
</glyph>
<glyph name="ocircumflex" format="1">
  <advance width="285"/>
  <unicode hex="00F4"/>
  <outline>
    <contour>
      <point x="246" y="114" type="qcurve" smooth="yes"/>
      <point x="246" y="449" type="line" smooth="yes"/>
      <point x="246" y="571"/>
      <point x="142" y="571" type="qcurve" smooth="yes"/>
      <point x="39" y="571"/>
      <point x="39" y="449" type="qcurve" smooth="yes"/>
      <point x="39" y="114" type="line" smooth="yes"/>
      <point x="39" y="-8"/>
      <point x="142" y="-8" type="qcurve" smooth="yes"/>
      <point x="246" y="-8"/>
    </contour>
    <contour>
      <point x="212" y="112" type="line" smooth="yes"/>
      <point x="212" y="17"/>
      <point x="72" y="17"/>
      <point x="72" y="112" type="qcurve" smooth="yes"/>
      <point x="72" y="451" type="line" smooth="yes"/>
      <point x="72" y="545"/>
      <point x="212" y="545"/>
      <point x="212" y="451" type="qcurve" smooth="yes"/>
    </contour>
    <contour>
      <point x="207" y="641" type="line"/>
      <point x="161" y="796" type="line"/>
      <point x="124" y="796" type="line"/>
      <point x="79" y="641" type="line"/>
      <point x="111" y="641" type="line"/>
      <point x="142" y="737" type="line"/>
      <point x="175" y="642" type="line"/>
    </contour>
  </outline>
</glyph>
<glyph name="otilde" format="1">
  <advance width="285"/>
  <unicode hex="00F5"/>
  <outline>
    <contour>
      <point x="246" y="114" type="qcurve" smooth="yes"/>
      <point x="246" y="449" type="line" smooth="yes"/>
      <point x="246" y="571"/>
      <point x="142" y="571" type="qcurve" smooth="yes"/>
      <point x="39" y="571"/>
      <point x="39" y="449" type="qcurve" smooth="yes"/>
      <point x="39" y="114" type="line" smooth="yes"/>
      <point x="39" y="-8"/>
      <point x="142" y="-8" type="qcurve" smooth="yes"/>
      <point x="246" y="-8"/>
    </contour>
    <contour>
      <point x="212" y="112" type="line" smooth="yes"/>
      <point x="212" y="17"/>
      <point x="72" y="17"/>
      <point x="72" y="112" type="qcurve" smooth="yes"/>
      <point x="72" y="451" type="line" smooth="yes"/>
      <point x="72" y="545"/>
      <point x="212" y="545"/>
      <point x="212" y="451" type="qcurve" smooth="yes"/>
    </contour>
    <contour>
      <point x="266" y="756" type="line"/>
      <point x="214" y="701"/>
      <point x="190" y="704" type="qcurve" smooth="yes"/>
      <point x="175" y="706"/>
      <point x="145" y="730" type="qcurve" smooth="yes"/>
      <point x="114" y="756"/>
      <point x="97" y="757" type="qcurve"/>
      <point x="66" y="762"/>
      <point x="22" y="715" type="qcurve"/>
      <point x="17" y="672" type="line"/>
      <point x="71" y="728"/>
      <point x="95" y="726" type="qcurve" smooth="yes"/>
      <point x="106" y="725"/>
      <point x="132" y="702" type="qcurve"/>
      <point x="139" y="697" type="line"/>
      <point x="169" y="673"/>
      <point x="187" y="671" type="qcurve" smooth="yes"/>
      <point x="222" y="668"/>
      <point x="262" y="714" type="qcurve"/>
    </contour>
  </outline>
</glyph>
<glyph name="oslash" format="1">
  <advance width="285"/>
  <unicode hex="00F8"/>
  <outline>
    <contour>
      <point x="246" y="114" type="qcurve" smooth="yes"/>
      <point x="246" y="449" type="line" smooth="yes"/>
      <point x="246" y="505"/>
      <point x="225" y="535" type="qcurve"/>
      <point x="241" y="595" type="line"/>
      <point x="207" y="595" type="line"/>
      <point x="197" y="559" type="line"/>
      <point x="174" y="571"/>
      <point x="142" y="571" type="qcurve" smooth="yes"/>
      <point x="39" y="571"/>
      <point x="39" y="449" type="qcurve" smooth="yes"/>
      <point x="39" y="114" type="line" smooth="yes"/>
      <point x="39" y="62"/>
      <point x="57" y="32" type="qcurve"/>
      <point x="45" y="-15" type="line"/>
      <point x="79" y="-15" type="line"/>
      <point x="84" y="6" type="line"/>
      <point x="110" y="-8"/>
      <point x="142" y="-8" type="qcurve" smooth="yes"/>
      <point x="246" y="-8"/>
    </contour>
    <contour>
      <point x="212" y="112" type="line" smooth="yes"/>
      <point x="212" y="17"/>
      <point x="142" y="17" type="qcurve" smooth="yes"/>
      <point x="109" y="17"/>
      <point x="91" y="35" type="qcurve"/>
      <point x="211" y="481" type="line"/>
      <point x="212" y="476"/>
      <point x="212" y="466" type="qcurve" smooth="yes"/>
      <point x="212" y="451" type="line"/>
    </contour>
    <contour>
      <point x="190" y="530" type="qcurve"/>
      <point x="74" y="91" type="line"/>
      <point x="72" y="97"/>
      <point x="72" y="101" type="qcurve" smooth="yes"/>
      <point x="72" y="112" type="line"/>
      <point x="72" y="451" type="line" smooth="yes"/>
      <point x="72" y="545"/>
      <point x="142" y="545" type="qcurve" smooth="yes"/>
      <point x="174" y="545"/>
    </contour>
  </outline>
</glyph>
<glyph name="ugrave" format="1">
  <advance width="285"/>
  <unicode hex="00F9"/>
  <outline>
    <contour>
      <point x="246" y="114" type="qcurve" smooth="yes"/>
      <point x="246" y="574" type="line"/>
      <point x="212" y="574" type="line"/>
      <point x="212" y="112" type="line" smooth="yes"/>
      <point x="212" y="17"/>
      <point x="72" y="17"/>
      <point x="72" y="112" type="qcurve" smooth="yes"/>
      <point x="72" y="574" type="line"/>
      <point x="39" y="574" type="line"/>
      <point x="39" y="114" type="line" smooth="yes"/>
      <point x="39" y="-8"/>
      <point x="142" y="-8" type="qcurve" smooth="yes"/>
      <point x="246" y="-8"/>
    </contour>
    <contour>
      <point x="191" y="662" type="line"/>
      <point x="129" y="785" type="line"/>
      <point x="94" y="767" type="line"/>
      <point x="156" y="645" type="line"/>
    </contour>
  </outline>
</glyph>
<glyph name="ucircumflex" format="1">
  <advance width="285"/>
  <unicode hex="00FB"/>
  <outline>
    <contour>
      <point x="246" y="114" type="qcurve" smooth="yes"/>
      <point x="246" y="574" type="line"/>
      <point x="212" y="574" type="line"/>
      <point x="212" y="112" type="line" smooth="yes"/>
      <point x="212" y="17"/>
      <point x="72" y="17"/>
      <point x="72" y="112" type="qcurve" smooth="yes"/>
      <point x="72" y="574" type="line"/>
      <point x="39" y="574" type="line"/>
      <point x="39" y="114" type="line" smooth="yes"/>
      <point x="39" y="-8"/>
      <point x="142" y="-8" type="qcurve" smooth="yes"/>
      <point x="246" y="-8"/>
    </contour>
    <contour>
      <point x="207" y="641" type="line"/>
      <point x="161" y="796" type="line"/>
      <point x="124" y="796" type="line"/>
      <point x="79" y="641" type="line"/>
      <point x="111" y="641" type="line"/>
      <point x="142" y="737" type="line"/>
      <point x="175" y="642" type="line"/>
    </contour>
  </outline>
</glyph>
<glyph name="udieresis" format="1">
  <advance width="285"/>
  <unicode hex="00FC"/>
  <outline>
    <contour>
      <point x="246" y="114" type="qcurve" smooth="yes"/>
      <point x="246" y="574" type="line"/>
      <point x="212" y="574" type="line"/>
      <point x="212" y="112" type="line" smooth="yes"/>
      <point x="212" y="17"/>
      <point x="72" y="17"/>
      <point x="72" y="112" type="qcurve" smooth="yes"/>
      <point x="72" y="574" type="line"/>
      <point x="39" y="574" type="line"/>
      <point x="39" y="114" type="line" smooth="yes"/>
      <point x="39" y="-8"/>
      <point x="142" y="-8" type="qcurve" smooth="yes"/>
      <point x="246" y="-8"/>
    </contour>
    <contour>
      <point x="207" y="676" type="line"/>
      <point x="207" y="714" type="line"/>
      <point x="175" y="714" type="line"/>
      <point x="175" y="676" type="line"/>
    </contour>
    <contour>
      <point x="109" y="676" type="line"/>
      <point x="109" y="714" type="line"/>
      <point x="77" y="714" type="line"/>
      <point x="77" y="676" type="line"/>
    </contour>
  </outline>
</glyph>
<glyph name="ydieresis" format="1">
  <advance width="285"/>
  <unicode hex="00FF"/>
  <outline>
    <contour>
      <point x="247" y="-110" type="qcurve" smooth="yes"/>
      <point x="247" y="569" type="line"/>
      <point x="246" y="569" type="line"/>
      <point x="246" y="574" type="line"/>
      <point x="212" y="574" type="line"/>
      <point x="212" y="112" type="line" smooth="yes"/>
      <point x="212" y="17"/>
      <point x="72" y="17"/>
      <point x="72" y="112" type="qcurve" smooth="yes"/>
      <point x="72" y="574" type="line"/>
      <point x="39" y="574" type="line"/>
      <point x="39" y="114" type="line" smooth="yes"/>
      <point x="39" y="-8"/>
      <point x="142" y="-8" type="qcurve" smooth="yes"/>
      <point x="188" y="-8"/>
      <point x="214" y="12" type="qcurve"/>
      <point x="214" y="-113" type="line" smooth="yes"/>
      <point x="214" y="-206"/>
      <point x="144" y="-206" type="qcurve" smooth="yes"/>
      <point x="102" y="-206"/>
      <point x="85" y="-179" type="qcurve"/>
      <point x="74" y="-159"/>
      <point x="74" y="-113" type="qcurve" smooth="yes"/>
      <point x="74" y="-48" type="line"/>
      <point x="39" y="-48" type="line"/>
      <point x="39" y="-110" type="line" smooth="yes"/>
      <point x="39" y="-231"/>
      <point x="144" y="-231" type="qcurve" smooth="yes"/>
      <point x="247" y="-231"/>
    </contour>
    <contour>
      <point x="207" y="676" type="line"/>
      <point x="207" y="714" type="line"/>
      <point x="175" y="714" type="line"/>
      <point x="175" y="676" type="line"/>
    </contour>
    <contour>
      <point x="109" y="676" type="line"/>
      <point x="109" y="714" type="line"/>
      <point x="77" y="714" type="line"/>
      <point x="77" y="676" type="line"/>
    </contour>
  </outline>
</glyph>
<glyph name="ccaron" format="1">
  <advance width="226"/>
  <unicode hex="010D"/>
  <outline>
    <contour>
      <point x="171" y="156" type="line"/>
      <point x="171" y="184" type="line"/>
      <point x="155" y="184" type="line"/>
      <point x="155" y="649" type="line"/>
      <point x="105" y="630" type="line"/>
      <point x="105" y="602" type="line"/>
      <point x="126" y="610" type="line"/>
      <point x="126" y="184" type="line"/>
      <point x="110" y="184" type="line"/>
      <point x="110" y="156" type="line"/>
    </contour>
  </outline>
</glyph>
<glyph name="dcroat" format="1">
  <advance width="229"/>
  <unicode hex="0111"/>
  <outline>
    <contour>
      <point x="209" y="159" type="line"/>
      <point x="209" y="182" type="line"/>
      <point x="105" y="182" type="line"/>
      <point x="105" y="376" type="line" smooth="yes"/>
      <point x="105" y="390"/>
      <point x="106" y="395" type="qcurve" smooth="yes"/>
      <point x="108" y="404"/>
      <point x="112" y="406" type="qcurve"/>
      <point x="115" y="411"/>
      <point x="125" y="413" type="qcurve" smooth="yes"/>
      <point x="147" y="417"/>
      <point x="151" y="417" type="qcurve" smooth="yes"/>
      <point x="184" y="421"/>
      <point x="197" y="434" type="qcurve"/>
      <point x="209" y="448"/>
      <point x="209" y="485" type="qcurve" smooth="yes"/>
      <point x="209" y="576" type="line" smooth="yes"/>
      <point x="209" y="654"/>
      <point x="142" y="654" type="qcurve" smooth="yes"/>
      <point x="76" y="654"/>
      <point x="76" y="576" type="qcurve" smooth="yes"/>
      <point x="76" y="537" type="line"/>
      <point x="105" y="537" type="line"/>
      <point x="105" y="577" type="line" smooth="yes"/>
      <point x="105" y="603"/>
      <point x="111" y="615" type="qcurve"/>
      <point x="120" y="629"/>
      <point x="142" y="629" type="qcurve" smooth="yes"/>
      <point x="163" y="629"/>
      <point x="174" y="615" type="qcurve" smooth="yes"/>
      <point x="174" y="614"/>
      <point x="177" y="604"/>
      <point x="178" y="600" type="qcurve" smooth="yes"/>
      <point x="180" y="588"/>
      <point x="180" y="577" type="qcurve" smooth="yes"/>
      <point x="180" y="487" type="line" smooth="yes"/>
      <point x="180" y="470"/>
      <point x="178" y="464" type="qcurve"/>
      <point x="178" y="455"/>
      <point x="172" y="452" type="qcurve"/>
      <point x="169" y="447"/>
      <point x="159" y="445" type="qcurve" smooth="yes"/>
      <point x="150" y="444"/>
      <point x="135" y="442" type="qcurve" smooth="yes"/>
      <point x="76" y="437"/>
      <point x="76" y="376" type="qcurve" smooth="yes"/>
      <point x="76" y="159" type="line"/>
    </contour>
  </outline>
</glyph>
<glyph name="Gbreve" format="1">
  <advance width="229"/>
  <unicode hex="011E"/>
  <outline>
    <contour>
      <point x="209" y="230" type="qcurve" smooth="yes"/>
      <point x="209" y="379" type="line" smooth="yes"/>
      <point x="209" y="426"/>
      <point x="181" y="439" type="qcurve"/>
      <point x="209" y="451"/>
      <point x="209" y="496" type="qcurve" smooth="yes"/>
      <point x="209" y="575" type="line" smooth="yes"/>
      <point x="209" y="652"/>
      <point x="142" y="652" type="qcurve" smooth="yes"/>
      <point x="76" y="652"/>
      <point x="76" y="575" type="qcurve" smooth="yes"/>
      <point x="76" y="536" type="line"/>
      <point x="105" y="536" type="line"/>
      <point x="105" y="576" type="line" smooth="yes"/>
      <point x="105" y="602"/>
      <point x="111" y="614" type="qcurve"/>
      <point x="121" y="627"/>
      <point x="142" y="627" type="qcurve" smooth="yes"/>
      <point x="164" y="627"/>
      <point x="174" y="614" type="qcurve"/>
      <point x="174" y="612"/>
      <point x="177" y="601"/>
      <point x="178" y="598" type="qcurve" smooth="yes"/>
      <point x="180" y="584"/>
      <point x="180" y="576" type="qcurve" smooth="yes"/>
      <point x="180" y="499" type="line" smooth="yes"/>
      <point x="180" y="488"/>
      <point x="178" y="474" type="qcurve" smooth="yes"/>
      <point x="177" y="470"/>
      <point x="174" y="460" type="qcurve"/>
      <point x="163" y="449"/>
      <point x="136" y="449" type="qcurve" smooth="yes"/>
      <point x="112" y="449" type="line"/>
      <point x="112" y="426" type="line"/>
      <point x="136" y="426" type="line" smooth="yes"/>
      <point x="166" y="426"/>
      <point x="172" y="416" type="qcurve"/>
      <point x="180" y="407"/>
      <point x="180" y="377" type="qcurve" smooth="yes"/>
      <point x="180" y="227" type="line" smooth="yes"/>
      <point x="180" y="176"/>
      <point x="142" y="176" type="qcurve" smooth="yes"/>
      <point x="120" y="176"/>
      <point x="111" y="190" type="qcurve" smooth="yes"/>
      <point x="105" y="201"/>
      <point x="105" y="227" type="qcurve" smooth="yes"/>
      <point x="105" y="270" type="line"/>
      <point x="76" y="270" type="line"/>
      <point x="76" y="230" type="line" smooth="yes"/>
      <point x="76" y="152"/>
      <point x="142" y="152" type="qcurve" smooth="yes"/>
      <point x="209" y="152"/>
    </contour>
  </outline>
</glyph>
<glyph name="gbreve" format="1">
  <advance width="226"/>
  <unicode hex="011F"/>
  <outline>
    <contour>
      <point x="225" y="426" type="line"/>
      <point x="225" y="449" type="line"/>
      <point x="194" y="449" type="line"/>
      <point x="194" y="646" type="line"/>
      <point x="165" y="646" type="line"/>
      <point x="52" y="426" type="line"/>
      <point x="165" y="426" type="line"/>
      <point x="165" y="156" type="line"/>
      <point x="194" y="156" type="line"/>
      <point x="194" y="426" type="line"/>
    </contour>
    <contour>
      <point x="165" y="449" type="line"/>
      <point x="97" y="449" type="line"/>
      <point x="165" y="584" type="line"/>
    </contour>
  </outline>
</glyph>
<glyph name="lslash" format="1">
  <advance width="116"/>
  <unicode hex="0142"/>
  <outline>
    <contour>
      <point x="75" y="0" type="line"/>
      <point x="75" y="377" type="line"/>
      <point x="168" y="424" type="line"/>
      <point x="155" y="452" type="line"/>
      <point x="75" y="411" type="line"/>
      <point x="75" y="804" type="line"/>
      <point x="41" y="771" type="line"/>
      <point x="41" y="394" type="line"/>
      <point x="-55" y="345" type="line"/>
      <point x="-42" y="317" type="line"/>
      <point x="41" y="359" type="line"/>
      <point x="41" y="0" type="line"/>
    </contour>
  </outline>
</glyph>
<glyph name="oe" format="1">
  <advance width="456"/>
  <unicode hex="0153"/>
  <outline>
    <contour>
      <point x="421" y="114" type="qcurve" smooth="yes"/>
      <point x="421" y="131" type="line"/>
      <point x="387" y="131" type="line"/>
      <point x="387" y="112" type="line" smooth="yes"/>
      <point x="387" y="17"/>
      <point x="247" y="17"/>
      <point x="247" y="112" type="qcurve" smooth="yes"/>
      <point x="247" y="301" type="line"/>
      <point x="421" y="301" type="line"/>
      <point x="421" y="449" type="line" smooth="yes"/>
      <point x="421" y="571"/>
      <point x="317" y="571" type="qcurve" smooth="yes"/>
      <point x="254" y="571"/>
      <point x="230" y="526" type="qcurve"/>
      <point x="206" y="571"/>
      <point x="142" y="571" type="qcurve" smooth="yes"/>
      <point x="39" y="571"/>
      <point x="39" y="449" type="qcurve" smooth="yes"/>
      <point x="39" y="114" type="line" smooth="yes"/>
      <point x="39" y="-8"/>
      <point x="142" y="-8" type="qcurve" smooth="yes"/>
      <point x="206" y="-8"/>
      <point x="230" y="37" type="qcurve"/>
      <point x="254" y="-8"/>
      <point x="317" y="-8" type="qcurve" smooth="yes"/>
      <point x="421" y="-8"/>
    </contour>
    <contour>
      <point x="212" y="112" type="line" smooth="yes"/>
      <point x="212" y="17"/>
      <point x="72" y="17"/>
      <point x="72" y="112" type="qcurve" smooth="yes"/>
      <point x="72" y="451" type="line" smooth="yes"/>
      <point x="72" y="545"/>
      <point x="212" y="545"/>
      <point x="212" y="451" type="qcurve" smooth="yes"/>
    </contour>
    <contour>
      <point x="387" y="332" type="line"/>
      <point x="247" y="332" type="line"/>
      <point x="247" y="451" type="line" smooth="yes"/>
      <point x="247" y="545"/>
      <point x="387" y="545"/>
      <point x="387" y="451" type="qcurve" smooth="yes"/>
    </contour>
  </outline>
</glyph>
<glyph name="scaron" format="1">
  <advance width="285"/>
  <unicode hex="0161"/>
  <outline>
    <contour>
      <point x="246" y="229" type="line"/>
      <point x="245" y="229" type="line"/>
      <point x="236" y="319"/>
      <point x="144" y="319" type="qcurve" smooth="yes"/>
      <point x="108" y="319"/>
      <point x="92" y="344" type="qcurve"/>
      <point x="74" y="368"/>
      <point x="74" y="422" type="qcurve" smooth="yes"/>
      <point x="74" y="451" type="line" smooth="yes"/>
      <point x="74" y="545"/>
      <point x="214" y="545"/>
      <point x="214" y="451" type="qcurve" smooth="yes"/>
      <point x="214" y="404" type="line"/>
      <point x="246" y="404" type="line"/>
      <point x="246" y="449" type="line" smooth="yes"/>
      <point x="246" y="571"/>
      <point x="144" y="571" type="qcurve" smooth="yes"/>
      <point x="34" y="571"/>
      <point x="39" y="449" type="qcurve"/>
      <point x="39" y="415" type="line" smooth="yes"/>
      <point x="39" y="354"/>
      <point x="66" y="321" type="qcurve" smooth="yes"/>
      <point x="92" y="288"/>
      <point x="144" y="288" type="qcurve" smooth="yes"/>
      <point x="180" y="288"/>
      <point x="196" y="272" type="qcurve"/>
      <point x="214" y="257"/>
      <point x="214" y="219" type="qcurve" smooth="yes"/>
      <point x="214" y="112" type="line" smooth="yes"/>
      <point x="214" y="19"/>
      <point x="74" y="19"/>
      <point x="74" y="112" type="qcurve" smooth="yes"/>
      <point x="74" y="171" type="line"/>
      <point x="39" y="171" type="line"/>
      <point x="39" y="114" type="line" smooth="yes"/>
      <point x="39" y="-8"/>
      <point x="144" y="-8" type="qcurve" smooth="yes"/>
      <point x="246" y="-8"/>
      <point x="246" y="114" type="qcurve" smooth="yes"/>
    </contour>
    <contour>
      <point x="207" y="796" type="line"/>
      <point x="175" y="796" type="line"/>
      <point x="142" y="701" type="line"/>
      <point x="111" y="796" type="line"/>
      <point x="79" y="796" type="line"/>
      <point x="124" y="641" type="line"/>
      <point x="161" y="641" type="line"/>
    </contour>
  </outline>
</glyph>
<glyph name="Ydieresis" format="1">
  <advance width="280"/>
  <unicode hex="0178"/>
  <outline>
    <contour>
      <point x="270" y="804" type="line"/>
      <point x="236" y="804" type="line"/>
      <point x="140" y="460" type="line"/>
      <point x="47" y="804" type="line"/>
      <point x="10" y="804" type="line"/>
      <point x="122" y="414" type="line"/>
      <point x="122" y="0" type="line"/>
      <point x="156" y="0" type="line"/>
      <point x="156" y="412" type="line"/>
    </contour>
    <contour>
      <point x="205" y="889" type="line"/>
      <point x="205" y="926" type="line"/>
      <point x="172" y="926" type="line"/>
      <point x="172" y="889" type="line"/>
    </contour>
    <contour>
      <point x="106" y="889" type="line"/>
      <point x="106" y="926" type="line"/>
      <point x="74" y="926" type="line"/>
      <point x="74" y="889" type="line"/>
    </contour>
  </outline>
</glyph>
<glyph name="Zcaron" format="1">
  <advance width="270"/>
  <unicode hex="017D"/>
  <outline>
    <contour>
      <point x="247" y="804" type="line"/>
      <point x="26" y="804" type="line"/>
      <point x="26" y="776" type="line"/>
      <point x="206" y="776" type="line"/>
      <point x="22" y="0" type="line"/>
      <point x="244" y="0" type="line"/>
      <point x="244" y="26" type="line"/>
      <point x="64" y="26" type="line"/>
    </contour>
    <contour>
      <point x="209" y="1007" type="line"/>
      <point x="177" y="1007" type="line"/>
      <point x="144" y="912" type="line"/>
      <point x="113" y="1007" type="line"/>
      <point x="81" y="1007" type="line"/>
      <point x="126" y="852" type="line"/>
      <point x="163" y="852" type="line"/>
    </contour>
  </outline>
</glyph>
<glyph name="zcaron" format="1">
  <advance width="270"/>
  <unicode hex="017E"/>
  <outline>
    <contour>
      <point x="256" y="575" type="line"/>
      <point x="35" y="575" type="line"/>
      <point x="35" y="547" type="line"/>
      <point x="215" y="547" type="line"/>
      <point x="24" y="0" type="line"/>
      <point x="244" y="0" type="line"/>
      <point x="244" y="26" type="line"/>
      <point x="64" y="26" type="line"/>
    </contour>
    <contour>
      <point x="207" y="796" type="line"/>
      <point x="175" y="796" type="line"/>
      <point x="142" y="701" type="line"/>
      <point x="111" y="796" type="line"/>
      <point x="79" y="796" type="line"/>
      <point x="124" y="641" type="line"/>
      <point x="161" y="641" type="line"/>
    </contour>
  </outline>
</glyph>
<glyph name="circumflex" format="1">
  <advance width="332"/>
  <unicode hex="02C6"/>
  <outline>
    <contour>
      <point x="231" y="574" type="line"/>
      <point x="185" y="729" type="line"/>
      <point x="147" y="729" type="line"/>
      <point x="101" y="574" type="line"/>
      <point x="135" y="574" type="line"/>
      <point x="166" y="670" type="line"/>
      <point x="199" y="575" type="line"/>
    </contour>
  </outline>
</glyph>
<glyph name="caron" format="1">
  <advance width="285"/>
  <unicode hex="02C7"/>
  <outline>
    <contour>
      <point x="207" y="796" type="line"/>
      <point x="175" y="796" type="line"/>
      <point x="142" y="701" type="line"/>
      <point x="111" y="796" type="line"/>
      <point x="79" y="796" type="line"/>
      <point x="124" y="641" type="line"/>
      <point x="161" y="641" type="line"/>
    </contour>
  </outline>
</glyph>
<glyph name="tilde" format="1">
  <advance width="327"/>
  <unicode hex="02DC"/>
  <outline>
    <contour>
      <point x="291" y="759" type="line"/>
      <point x="239" y="704"/>
      <point x="215" y="706" type="qcurve" smooth="yes"/>
      <point x="200" y="708"/>
      <point x="170" y="732" type="qcurve"/>
      <point x="140" y="759"/>
      <point x="122" y="761" type="qcurve" smooth="yes"/>
      <point x="108" y="762"/>
      <point x="88" y="752" type="qcurve"/>
      <point x="69" y="740"/>
      <point x="47" y="717" type="qcurve"/>
      <point x="44" y="675" type="line"/>
      <point x="96" y="730"/>
      <point x="120" y="729" type="qcurve"/>
      <point x="134" y="722" type="line" smooth="yes"/>
      <point x="138" y="720"/>
      <point x="157" y="705" type="qcurve"/>
      <point x="164" y="701" type="line"/>
      <point x="194" y="676"/>
      <point x="212" y="674" type="qcurve" smooth="yes"/>
      <point x="245" y="671"/>
      <point x="287" y="716" type="qcurve"/>
    </contour>
  </outline>
</glyph>
<glyph name="mu" format="1">
  <advance width="285"/>
  <unicode hex="03BC"/>
  <outline>
    <contour>
      <point x="252" y="-131" type="qcurve"/>
      <point x="252" y="-105" type="line"/>
      <point x="182" y="-105"/>
      <point x="182" y="-15" type="qcurve" smooth="yes"/>
      <point x="182" y="-3" type="line"/>
      <point x="246" y="18"/>
      <point x="246" y="114" type="qcurve" smooth="yes"/>
      <point x="246" y="574" type="line"/>
      <point x="212" y="574" type="line"/>
      <point x="212" y="112" type="line" smooth="yes"/>
      <point x="212" y="17"/>
      <point x="72" y="17"/>
      <point x="72" y="112" type="qcurve" smooth="yes"/>
      <point x="72" y="574" type="line"/>
      <point x="39" y="574" type="line"/>
      <point x="39" y="-214" type="line"/>
      <point x="72" y="-214" type="line"/>
      <point x="72" y="15" type="line"/>
      <point x="99" y="-10"/>
      <point x="142" y="-8" type="qcurve"/>
      <point x="149" y="-8" type="line"/>
      <point x="149" y="-9" type="line" smooth="yes"/>
      <point x="149" y="-131"/>
    </contour>
  </outline>
</glyph>
<glyph name="endash" format="1">
  <advance width="507"/>
  <unicode hex="2013"/>
  <outline>
    <contour>
      <point x="509" y="327" type="line"/>
      <point x="509" y="351" type="line"/>
      <point x="-1" y="351" type="line"/>
      <point x="-1" y="327" type="line"/>
    </contour>
  </outline>
</glyph>
<glyph name="quoteright" format="1">
  <advance width="142"/>
  <unicode hex="2019"/>
  <outline>
    <contour>
      <point x="117" y="806" type="line"/>
      <point x="25" y="806" type="line"/>
      <point x="25" y="741" type="line"/>
      <point x="66" y="741" type="line"/>
      <point x="35" y="627" type="line"/>
      <point x="67" y="627" type="line"/>
      <point x="116" y="804" type="line"/>
    </contour>
  </outline>
</glyph>
<glyph name="quotesinglbase" format="1">
  <advance width="142"/>
  <unicode hex="201A"/>
  <outline>
    <contour>
      <point x="87" y="41" type="line"/>
      <point x="29" y="41" type="line"/>
      <point x="29" y="4" type="line"/>
      <point x="47" y="4" type="line"/>
      <point x="32" y="-73" type="line"/>
      <point x="65" y="-73" type="line"/>
      <point x="87" y="39" type="line"/>
    </contour>
  </outline>
</glyph>
<glyph name="quotedblright" format="1">
  <advance width="289"/>
  <unicode hex="201D"/>
  <outline>
    <contour>
      <point x="265" y="806" type="line"/>
      <point x="172" y="806" type="line"/>
      <point x="172" y="741" type="line"/>
      <point x="214" y="741" type="line"/>
      <point x="182" y="627" type="line"/>
      <point x="215" y="627" type="line"/>
      <point x="264" y="804" type="line"/>
    </contour>
    <contour>
      <point x="117" y="806" type="line"/>
      <point x="25" y="806" type="line"/>
      <point x="25" y="741" type="line"/>
      <point x="66" y="741" type="line"/>
      <point x="35" y="627" type="line"/>
      <point x="67" y="627" type="line"/>
      <point x="116" y="804" type="line"/>
    </contour>
  </outline>
</glyph>
<glyph name="quotedblbase" format="1">
  <advance width="225"/>
  <unicode hex="201E"/>
  <outline>
    <contour>
      <point x="191" y="41" type="line"/>
      <point x="132" y="41" type="line"/>
      <point x="132" y="4" type="line"/>
      <point x="151" y="4" type="line"/>
      <point x="136" y="-73" type="line"/>
      <point x="169" y="-73" type="line"/>
      <point x="191" y="39" type="line"/>
    </contour>
    <contour>
      <point x="87" y="41" type="line"/>
      <point x="29" y="41" type="line"/>
      <point x="29" y="4" type="line"/>
      <point x="47" y="4" type="line"/>
      <point x="32" y="-73" type="line"/>
      <point x="65" y="-73" type="line"/>
      <point x="87" y="39" type="line"/>
    </contour>
  </outline>
</glyph>
<glyph name="bullet" format="1">
  <advance width="200"/>
  <unicode hex="2022"/>
  <outline>
    <contour>
      <point x="145" y="292" type="line"/>
      <point x="145" y="394" type="line"/>
      <point x="47" y="394" type="line"/>
      <point x="47" y="292" type="line"/>
    </contour>
  </outline>
</glyph>
<glyph name="ellipsis" format="1">
  <advance width="457"/>
  <unicode hex="2026"/>
  <outline>
    <contour>
      <point x="415" y="4" type="line"/>
      <point x="415" y="41" type="line"/>
      <point x="382" y="41" type="line"/>
      <point x="382" y="4" type="line"/>
    </contour>
    <contour>
      <point x="87" y="4" type="line"/>
      <point x="87" y="41" type="line"/>
      <point x="55" y="41" type="line"/>
      <point x="55" y="4" type="line"/>
    </contour>
    <contour>
      <point x="256" y="4" type="line"/>
      <point x="256" y="41" type="line"/>
      <point x="224" y="41" type="line"/>
      <point x="224" y="4" type="line"/>
    </contour>
  </outline>
</glyph>
<glyph name="guilsinglleft" format="1">
  <advance width="325"/>
  <unicode hex="2039"/>
  <outline>
    <contour>
      <point x="285" y="141" type="line"/>
      <point x="285" y="179" type="line"/>
      <point x="100" y="334" type="line"/>
      <point x="285" y="487" type="line"/>
      <point x="285" y="526" type="line"/>
      <point x="56" y="345" type="line"/>
      <point x="56" y="322" type="line"/>
    </contour>
  </outline>
</glyph>
<glyph name="guilsinglright" format="1">
  <advance width="325"/>
  <unicode hex="203A"/>
  <outline>
    <contour>
      <point x="285" y="322" type="line"/>
      <point x="285" y="345" type="line"/>
      <point x="56" y="526" type="line"/>
      <point x="56" y="487" type="line"/>
      <point x="242" y="334" type="line"/>
      <point x="56" y="179" type="line"/>
      <point x="56" y="141" type="line"/>
    </contour>
  </outline>
</glyph>
<glyph name="fi" format="1">
  <advance width="261"/>
  <unicode hex="FB01"/>
  <outline>
    <contour>
      <point x="236" y="664" type="line"/>
      <point x="236" y="681" type="line" smooth="yes"/>
      <point x="236" y="804"/>
      <point x="131" y="804" type="qcurve" smooth="yes"/>
      <point x="27" y="804"/>
      <point x="27" y="681" type="qcurve" smooth="yes"/>
      <point x="27" y="-3" type="line"/>
      <point x="61" y="-3" type="line"/>
      <point x="61" y="540" type="line"/>
      <point x="201" y="540" type="line"/>
      <point x="201" y="-4" type="line"/>
      <point x="235" y="-4" type="line"/>
      <point x="235" y="570" type="line"/>
      <point x="61" y="570" type="line"/>
      <point x="61" y="684" type="line" smooth="yes"/>
      <point x="61" y="777"/>
      <point x="131" y="777" type="qcurve" smooth="yes"/>
      <point x="174" y="777"/>
      <point x="190" y="750" type="qcurve"/>
      <point x="201" y="726"/>
      <point x="201" y="684" type="qcurve" smooth="yes"/>
      <point x="201" y="664" type="line"/>
    </contour>
  </outline>
</glyph>
<glyph name="fl" format="1">
  <advance width="360"/>
  <unicode hex="FB02"/>
  <outline>
    <contour>
      <point x="315" y="0" type="line"/>
      <point x="315" y="804" type="line"/>
      <point x="282" y="771" type="line"/>
      <point x="282" y="570" type="line"/>
      <point x="61" y="570" type="line"/>
      <point x="61" y="684" type="line" smooth="yes"/>
      <point x="61" y="777"/>
      <point x="131" y="777" type="qcurve" smooth="yes"/>
      <point x="174" y="777"/>
      <point x="190" y="750" type="qcurve"/>
      <point x="201" y="726"/>
      <point x="201" y="684" type="qcurve" smooth="yes"/>
      <point x="201" y="664" type="line"/>
      <point x="236" y="664" type="line"/>
      <point x="236" y="681" type="line" smooth="yes"/>
      <point x="236" y="804"/>
      <point x="131" y="804" type="qcurve" smooth="yes"/>
      <point x="27" y="804"/>
      <point x="27" y="681" type="qcurve" smooth="yes"/>
      <point x="27" y="-3" type="line"/>
      <point x="61" y="-3" type="line"/>
      <point x="61" y="540" type="line"/>
      <point x="282" y="540" type="line"/>
      <point x="282" y="0" type="line"/>
    </contour>
  </outline>
</glyph>
<glyph name=".notdef" format="1">
  <advance width="399"/>
  <outline>
    <contour>
      <point x="375" y="266" type="line"/>
      <point x="375" y="299" type="line"/>
      <point x="274" y="299" type="line"/>
      <point x="274" y="402" type="line"/>
      <point x="375" y="402" type="line"/>
      <point x="375" y="435" type="line"/>
      <point x="274" y="435" type="line"/>
      <point x="274" y="564" type="line"/>
      <point x="240" y="564" type="line"/>
      <point x="240" y="435" type="line"/>
      <point x="164" y="435" type="line"/>
      <point x="164" y="564" type="line"/>
      <point x="131" y="564" type="line"/>
      <point x="131" y="435" type="line"/>
      <point x="30" y="435" type="line"/>
      <point x="30" y="402" type="line"/>
      <point x="131" y="402" type="line"/>
      <point x="131" y="299" type="line"/>
      <point x="30" y="299" type="line"/>
      <point x="30" y="266" type="line"/>
      <point x="131" y="266" type="line"/>
      <point x="131" y="137" type="line"/>
      <point x="164" y="137" type="line"/>
      <point x="164" y="266" type="line"/>
      <point x="240" y="266" type="line"/>
      <point x="240" y="137" type="line"/>
      <point x="274" y="137" type="line"/>
      <point x="274" y="266" type="line"/>
    </contour>
    <contour>
      <point x="240" y="299" type="line"/>
      <point x="164" y="299" type="line"/>
      <point x="164" y="402" type="line"/>
      <point x="240" y="402" type="line"/>
    </contour>
  </outline>
</glyph>
<glyph name="glyph111" format="1">
  <advance width="285"/>
  <outline>
    <contour>
      <point x="230" y="-180" type="qcurve"/>
      <point x="230" y="-154" type="line"/>
      <point x="160" y="-154"/>
      <point x="160" y="-61" type="qcurve" smooth="yes"/>
      <point x="160" y="364" type="line" smooth="yes"/>
      <point x="160" y="485"/>
      <point x="55" y="485" type="qcurve"/>
      <point x="55" y="459" type="line"/>
      <point x="126" y="459"/>
      <point x="126" y="366" type="qcurve" smooth="yes"/>
      <point x="126" y="-59" type="line" smooth="yes"/>
      <point x="126" y="-180"/>
    </contour>
  </outline>
</glyph>
<glyph name="glyph112" format="1">
  <advance width="287"/>
  <outline>
    <contour>
      <point x="260" y="0" type="line"/>
      <point x="255" y="804" type="line"/>
      <point x="222" y="804" type="line"/>
      <point x="222" y="165" type="line"/>
      <point x="77" y="802" type="line"/>
      <point x="75" y="802" type="line"/>
      <point x="75" y="804" type="line"/>
      <point x="41" y="804" type="line"/>
      <point x="41" y="0" type="line"/>
      <point x="75" y="0" type="line"/>
      <point x="75" y="666" type="line"/>
      <point x="222" y="17" type="line"/>
      <point x="222" y="0" type="line"/>
    </contour>
  </outline>
</glyph>
<glyph name="glyph113" format="1">
  <advance width="459"/>
  <outline>
    <contour>
      <point x="75" y="0" type="line"/>
      <point x="75" y="804" type="line"/>
      <point x="41" y="804" type="line"/>
      <point x="41" y="0" type="line"/>
    </contour>
    <contour>
      <point x="419" y="0" type="line"/>
      <point x="419" y="804" type="line"/>
      <point x="386" y="804" type="line"/>
      <point x="386" y="0" type="line"/>
    </contour>
  </outline>
</glyph>
<glyph name="glyph114" format="1">
  <advance width="932"/>
  <outline>
    <contour>
      <point x="731" y="306" type="qcurve"/>
      <point x="731" y="349" type="line"/>
      <point x="672" y="287"/>
      <point x="642" y="287" type="qcurve" smooth="yes"/>
      <point x="625" y="287"/>
      <point x="581" y="310" type="qcurve" smooth="yes"/>
      <point x="541" y="332"/>
      <point x="519" y="332" type="qcurve" smooth="yes"/>
      <point x="476" y="332"/>
      <point x="430" y="281" type="qcurve"/>
      <point x="430" y="239" type="line"/>
      <point x="488" y="300"/>
      <point x="519" y="300" type="qcurve" smooth="yes"/>
      <point x="536" y="300"/>
      <point x="570" y="281" type="qcurve"/>
      <point x="577" y="276" type="line"/>
      <point x="618" y="255"/>
      <point x="642" y="255" type="qcurve" smooth="yes"/>
      <point x="683" y="255"/>
    </contour>
  </outline>
</glyph>
<glyph name="glyph227" format="1">
  <advance width="150"/>
  <outline>
    <contour>
      <point x="525" y="257" type="line"/>
      <point x="525" y="290" type="line"/>
      <point x="385" y="326" type="line"/>
      <point x="524" y="365" type="line"/>
      <point x="525" y="396" type="line"/>
      <point x="315" y="340" type="line"/>
      <point x="315" y="314" type="line"/>
    </contour>
  </outline>
</glyph>
<glyph name="glyph228" format="1">
  <advance width="285"/>
  <outline>
    <contour>
      <point x="480" y="442" type="line"/>
      <point x="440" y="701" type="line"/>
      <point x="412" y="701" type="line"/>
      <point x="372" y="442" type="line"/>
      <point x="406" y="442" type="line"/>
      <point x="426" y="576" type="line"/>
      <point x="447" y="444" type="line"/>
    </contour>
  </outline>
</glyph>
<glyph name="glyph98" format="1">
  <advance width="452"/>
  <outline>
    <contour>
      <point x="421" y="-8" type="line"/>
      <point x="421" y="452" type="line" smooth="yes"/>
      <point x="421" y="574"/>
      <point x="317" y="574" type="qcurve" smooth="yes"/>
      <point x="252" y="574"/>
      <point x="230" y="532" type="qcurve"/>
      <point x="206" y="574"/>
      <point x="142" y="574" type="qcurve" smooth="yes"/>
      <point x="96" y="574"/>
      <point x="70" y="551" type="qcurve"/>
      <point x="70" y="574" type="line"/>
      <point x="36" y="574" type="line"/>
      <point x="36" y="-8" type="line"/>
      <point x="72" y="-8" type="line"/>
      <point x="72" y="454" type="line" smooth="yes"/>
      <point x="72" y="549"/>
      <point x="212" y="549"/>
      <point x="212" y="454" type="qcurve" smooth="yes"/>
      <point x="212" y="-8" type="line"/>
      <point x="247" y="-8" type="line"/>
      <point x="247" y="454" type="line" smooth="yes"/>
      <point x="247" y="549"/>
      <point x="387" y="549"/>
      <point x="387" y="454" type="qcurve" smooth="yes"/>
      <point x="387" y="-8" type="line"/>
    </contour>
  </outline>
</glyph>
<glyph name="glyph99" format="1">
  <advance width="280"/>
  <outline>
    <contour>
      <point x="240" y="0" type="line"/>
      <point x="155" y="304" type="line"/>
      <point x="232" y="574" type="line"/>
      <point x="195" y="574" type="line"/>
      <point x="136" y="357" type="line"/>
      <point x="79" y="574" type="line"/>
      <point x="45" y="574" type="line"/>
      <point x="120" y="296" type="line"/>
      <point x="35" y="0" type="line"/>
      <point x="72" y="0" type="line"/>
      <point x="137" y="247" type="line"/>
      <point x="206" y="0" type="line"/>
    </contour>
  </outline>
</glyph>
